{
  "source": "C:\\Users\\Peter\\Desktop\\stuff\\MIUN\\quantitative_research\\video_compression\\videos\\UVG\\Bosphorus_1920x1080_120fps_420_8bit_YUV.y4m",
  "output": "C:\\Users\\Peter\\Desktop\\stuff\\MIUN\\quantitative_research\\video_compression\\compressed_videos\\UVG\\hevc\\2.5\\Bosphorus_1920x1080_120fps_420_8bit_YUV_hevc.mp4",
  "codec": "hevc",
  "ok": "[yuv4mpegpipe @ 000002ed03df6740] Stream #0: not enough frames to estimate rate; consider increasing probesize\nInput #0, yuv4mpegpipe, from 'C:\\Users\\Peter\\Desktop\\stuff\\MIUN\\quantitative_research\\video_compression\\videos\\UVG\\Bosphorus_1920x1080_120fps_420_8bit_YUV.y4m':\n  Duration: 00:00:05.00, start: 0.000000, bitrate: 2985989 kb/s\n  Stream #0:0: Video: rawvideo (I420 / 0x30323449), yuv420p(progressive), 1920x1080, 120 fps, 120 tbr, 120 tbn\n[out#0/mp4 @ 000002ed03df9ac0] Codec AVOption b:a (set bitrate (in bits/s)) has not been used for any stream. The most likely reason is either wrong type (e.g. a video option with no video streams) or that it is a private option of some decoder which was not actually used for any stream.\nStream mapping:\n  Stream #0:0 -> #0:0 (rawvideo (native) -> hevc (libx265))\nPress [q] to stop, [?] for help\n[libx265 @ 000002ed03dfcb00] Unknown option: \"aq-mode.\nx265 [info]: HEVC encoder version 4.1+190-8f11c33ac\nx265 [info]: build info [Windows][GCC 15.1.0][64 bit] 10bit\nx265 [info]: using cpu capabilities: MMX2 SSE2Fast LZCNT SSSE3 SSE4.2 AVX FMA3 BMI2 AVX2\nx265 [info]: Main 10 profile, Level-5 (Main tier)\nx265 [info]: Thread pool created using 12 threads\nx265 [info]: Slices                              : 1\nx265 [info]: frame threads / pool features       : 3 / wpp(17 rows)\nx265 [info]: Coding QT: max CU size, min CU size : 64 / 8\nx265 [info]: Residual QT: max TU size, max depth : 32 / 1 inter / 1 intra\nx265 [info]: ME / range / subpel / merge         : star / 57 / 3 / 3\nx265 [info]: Keyframe min / max / scenecut / bias  : 25 / 250 / 40 / 5.00 \nx265 [info]: Lookahead / bframes / badapt        : 25 / 4 / 2\nx265 [info]: b-pyramid / weightp / weightb       : 1 / 1 / 0\nx265 [info]: References / ref-limit  cu / depth  : 4 / on / on\nx265 [info]: AQ: mode / str / qg-size / cu-tree  : 2 / 1.0 / 32 / 1\nx265 [info]: Rate Control / qCompress            : ABR-2500 kbps / 0.60\nx265 [info]: VBV/HRD buffer / max-rate / init    : 2500 / 2500 / 0.750\nx265 [info]: tools: rect limit-modes rd=4 psy-rd=2.00 rdoq=2 psy-rdoq=1.00\nx265 [info]: tools: rskip mode=1 signhide tmvp strong-intra-smoothing lslices=4\nx265 [info]: tools: deblock sao dhdr10-info\nOutput #0, mp4, to 'C:\\Users\\Peter\\Desktop\\stuff\\MIUN\\quantitative_research\\video_compression\\compressed_videos\\UVG\\hevc\\2.5\\Bosphorus_1920x1080_120fps_420_8bit_YUV_hevc.mp4':\n  Metadata:\n    encoder         : Lavf62.3.100\n  Stream #0:0: Video: hevc (hev1 / 0x31766568), yuv420p10le(tv, progressive), 1920x1080, q=2-31, 2500 kb/s, 120 fps, 15360 tbn\n    Metadata:\n      encoder         : Lavc62.11.100 libx265\n    Side data:\n      cpb: bitrate max/min/avg: 2500000/0/2500000 buffer size: 2500000 vbv_delay: N/A\nframe=    0 fps=0.0 q=0.0 size=       0KiB time=N/A bitrate=N/A speed=N/A elapsed=0:00:01.26    \nframe=    0 fps=0.0 q=0.0 size=       0KiB time=N/A bitrate=N/A speed=N/A elapsed=0:00:01.77    \nframe=    0 fps=0.0 q=0.0 size=       0KiB time=N/A bitrate=N/A speed=N/A elapsed=0:00:02.32    \nframe=    0 fps=0.0 q=0.0 size=       0KiB time=N/A bitrate=N/A speed=N/A elapsed=0:00:02.84    \nframe=    0 fps=0.0 q=0.0 size=       0KiB time=N/A bitrate=N/A speed=N/A elapsed=0:00:03.39    \nframe=    0 fps=0.0 q=0.0 size=       0KiB time=N/A bitrate=N/A speed=N/A elapsed=0:00:03.99    \nframe=    0 fps=0.0 q=0.0 size=       0KiB time=N/A bitrate=N/A speed=N/A elapsed=0:00:04.56    \nframe=    0 fps=0.0 q=0.0 size=       0KiB time=N/A bitrate=N/A speed=N/A elapsed=0:00:05.11    \nframe=    0 fps=0.0 q=0.0 size=       0KiB time=N/A bitrate=N/A speed=N/A elapsed=0:00:05.67    \nframe=    0 fps=0.0 q=0.0 size=       0KiB time=N/A bitrate=N/A speed=N/A elapsed=0:00:06.19    \nframe=    1 fps=0.1 q=44.1 size=       0KiB time=-00:00:00.00 bitrate=N/A speed=N/A elapsed=0:00:06.74    \nframe=    2 fps=0.3 q=50.9 size=       0KiB time=00:00:00.00 bitrate=N/A speed=   0x elapsed=0:00:07.27    \nframe=    3 fps=0.4 q=51.0 size=       0KiB time=00:00:00.00 bitrate=  42.2kbits/s speed=0.00106x elapsed=0:00:07.82    \nframe=    4 fps=0.5 q=51.0 size=       0KiB time=00:00:00.01 bitrate=  21.1kbits/s speed=0.00199x elapsed=0:00:08.35    \nframe=    4 fps=0.5 q=51.0 size=       0KiB time=00:00:00.01 bitrate=  21.1kbits/s speed=0.00188x elapsed=0:00:08.88    \nframe=    5 fps=0.5 q=50.0 size=       0KiB time=00:00:00.02 bitrate=  14.1kbits/s speed=0.00265x elapsed=0:00:09.44    \nframe=    7 fps=0.7 q=45.1 size=       0KiB time=00:00:00.04 bitrate=   8.4kbits/s speed=0.00415x elapsed=0:00:10.04    \nframe=    7 fps=0.7 q=45.1 size=       0KiB time=00:00:00.04 bitrate=   8.4kbits/s speed=0.00392x elapsed=0:00:10.63    \nframe=    8 fps=0.7 q=45.9 size=       0KiB time=00:00:00.05 bitrate=   7.0kbits/s speed=0.00446x elapsed=0:00:11.21    \nframe=    8 fps=0.7 q=45.9 size=       0KiB time=00:00:00.05 bitrate=   7.0kbits/s speed=0.00424x elapsed=0:00:11.78    \nframe=    9 fps=0.7 q=44.9 size=       0KiB time=00:00:00.05 bitrate=   6.0kbits/s speed=0.00474x elapsed=0:00:12.31    \nframe=   10 fps=0.8 q=38.4 size=       0KiB time=00:00:00.06 bitrate=   5.3kbits/s speed=0.00518x elapsed=0:00:12.88    \nframe=   11 fps=0.8 q=45.7 size=       0KiB time=00:00:00.07 bitrate=   4.7kbits/s speed=0.00558x elapsed=0:00:13.44    \nframe=   12 fps=0.9 q=44.8 size=       0KiB time=00:00:00.08 bitrate=   4.2kbits/s speed=0.00595x elapsed=0:00:14.00    \nframe=   13 fps=0.9 q=46.0 size=       0KiB time=00:00:00.08 bitrate=   4.2kbits/s speed=0.00571x elapsed=0:00:14.58    \nframe=   15 fps=1.0 q=44.9 size=       0KiB time=00:00:00.10 bitrate=   3.2kbits/s speed=0.00714x elapsed=0:00:15.16    \nframe=   15 fps=1.0 q=44.9 size=       0KiB time=00:00:00.10 bitrate=   3.2kbits/s speed=0.00688x elapsed=0:00:15.74    \nframe=   15 fps=0.9 q=44.9 size=       0KiB time=00:00:00.10 bitrate=   3.2kbits/s speed=0.00665x elapsed=0:00:16.29    \nframe=   16 fps=1.0 q=46.0 size=       0KiB time=00:00:00.11 bitrate=   3.0kbits/s speed=0.00694x elapsed=0:00:16.81    \nframe=   18 fps=1.0 q=37.0 size=       0KiB time=00:00:00.13 bitrate=   2.6kbits/s speed=0.00769x elapsed=0:00:17.32    \nframe=   19 fps=1.1 q=43.8 size=       0KiB time=00:00:00.14 bitrate=   2.5kbits/s speed=0.00792x elapsed=0:00:17.87    \nframe=   19 fps=1.0 q=43.8 size=       0KiB time=00:00:00.14 bitrate=   2.5kbits/s speed=0.00768x elapsed=0:00:18.45    \nframe=   20 fps=1.1 q=44.0 size=       0KiB time=00:00:00.15 bitrate=   2.3kbits/s speed=0.00789x elapsed=0:00:19.02    \nframe=   20 fps=1.0 q=44.0 size=       0KiB time=00:00:00.15 bitrate=   2.3kbits/s speed=0.00766x elapsed=0:00:19.58    \nframe=   22 fps=1.1 q=37.0 size=       0KiB time=00:00:00.16 bitrate=   2.1kbits/s speed=0.00827x elapsed=0:00:20.15    \nframe=   22 fps=1.1 q=37.0 size=       0KiB time=00:00:00.16 bitrate=   2.1kbits/s speed=0.00805x elapsed=0:00:20.70    \nframe=   23 fps=1.1 q=42.8 size=       0KiB time=00:00:00.17 bitrate=   2.0kbits/s speed=0.00823x elapsed=0:00:21.25    \nframe=   24 fps=1.1 q=44.0 size=       0KiB time=00:00:00.18 bitrate=   1.9kbits/s speed=0.00841x elapsed=0:00:21.79    \nframe=   24 fps=1.1 q=44.0 size=       0KiB time=00:00:00.18 bitrate=   1.9kbits/s speed=0.00821x elapsed=0:00:22.33    \nframe=   25 fps=1.1 q=42.9 size=       0KiB time=00:00:00.19 bitrate=   1.8kbits/s speed=0.00838x elapsed=0:00:22.87    \nframe=   25 fps=1.1 q=42.9 size=       0KiB time=00:00:00.19 bitrate=   1.8kbits/s speed=0.00819x elapsed=0:00:23.39    \nframe=   26 fps=1.1 q=35.9 size=       0KiB time=00:00:00.20 bitrate=   1.8kbits/s speed=0.00835x elapsed=0:00:23.93    \nframe=   26 fps=1.1 q=35.9 size=       0KiB time=00:00:00.20 bitrate=   1.8kbits/s speed=0.00818x elapsed=0:00:24.45    \nframe=   27 fps=1.1 q=42.6 size=       0KiB time=00:00:00.20 bitrate=   1.7kbits/s speed=0.00834x elapsed=0:00:24.96    \nframe=   27 fps=1.1 q=42.6 size=       0KiB time=00:00:00.20 bitrate=   1.7kbits/s speed=0.00815x elapsed=0:00:25.54    \nframe=   27 fps=1.0 q=42.6 size=       0KiB time=00:00:00.20 bitrate=   1.7kbits/s speed=0.00799x elapsed=0:00:26.08    \nframe=   27 fps=1.0 q=42.6 size=       0KiB time=00:00:00.20 bitrate=   1.7kbits/s speed=0.00781x elapsed=0:00:26.67    \nframe=   28 fps=1.0 q=43.0 size=       0KiB time=00:00:00.21 bitrate=   1.6kbits/s speed=0.00797x elapsed=0:00:27.18    \nframe=   28 fps=1.0 q=43.0 size=       0KiB time=00:00:00.21 bitrate=   1.6kbits/s speed=0.00781x elapsed=0:00:27.74    \nframe=   28 fps=1.0 q=43.0 size=       0KiB time=00:00:00.21 bitrate=   1.6kbits/s speed=0.00766x elapsed=0:00:28.30    \nframe=   29 fps=1.0 q=41.9 size=       0KiB time=00:00:00.22 bitrate=   1.6kbits/s speed=0.00779x elapsed=0:00:28.87    \nframe=   30 fps=1.0 q=35.4 size=       0KiB time=00:00:00.23 bitrate=   1.5kbits/s speed=0.00793x elapsed=0:00:29.41    \nframe=   31 fps=1.0 q=41.5 size=       0KiB time=00:00:00.24 bitrate=   1.5kbits/s speed=0.00806x elapsed=0:00:29.97    \nframe=   32 fps=1.0 q=42.0 size=       0KiB time=00:00:00.25 bitrate=   1.4kbits/s speed=0.0082x elapsed=0:00:30.49    \nframe=   32 fps=1.0 q=42.0 size=       0KiB time=00:00:00.25 bitrate=   1.4kbits/s speed=0.00806x elapsed=0:00:31.01    \nframe=   33 fps=1.0 q=41.9 size=       0KiB time=00:00:00.25 bitrate=   1.4kbits/s speed=0.00819x elapsed=0:00:31.54    \nframe=   34 fps=1.1 q=35.0 size=       0KiB time=00:00:00.26 bitrate=   1.3kbits/s speed=0.00832x elapsed=0:00:32.06    \nframe=   34 fps=1.0 q=35.0 size=       0KiB time=00:00:00.26 bitrate=   1.3kbits/s speed=0.00818x elapsed=0:00:32.58    \nframe=   35 fps=1.1 q=41.7 size=       0KiB time=00:00:00.27 bitrate=   1.3kbits/s speed=0.00831x elapsed=0:00:33.10    \nframe=   35 fps=1.0 q=41.7 size=       0KiB time=00:00:00.27 bitrate=   1.3kbits/s speed=0.00817x elapsed=0:00:33.65    \nframe=   35 fps=1.0 q=41.7 size=       0KiB time=00:00:00.27 bitrate=   1.3kbits/s speed=0.00805x elapsed=0:00:34.17    \nframe=   36 fps=1.0 q=42.0 size=       0KiB time=00:00:00.28 bitrate=   1.2kbits/s speed=0.00815x elapsed=0:00:34.75    \nframe=   36 fps=1.0 q=42.0 size=       0KiB time=00:00:00.28 bitrate=   1.2kbits/s speed=0.00802x elapsed=0:00:35.32    \nframe=   37 fps=1.0 q=42.0 size=       0KiB time=00:00:00.29 bitrate=   1.2kbits/s speed=0.00813x elapsed=0:00:35.88    \nframe=   38 fps=1.0 q=35.4 size=       0KiB time=00:00:00.30 bitrate=   1.2kbits/s speed=0.00824x elapsed=0:00:36.42    \nframe=   39 fps=1.1 q=41.7 size=       0KiB time=00:00:00.30 bitrate=   1.1kbits/s speed=0.00834x elapsed=0:00:36.97    \nframe=   39 fps=1.0 q=41.7 size=       0KiB time=00:00:00.30 bitrate=   1.1kbits/s speed=0.00822x elapsed=0:00:37.51    \nframe=   39 fps=1.0 q=41.7 size=       0KiB time=00:00:00.30 bitrate=   1.1kbits/s speed=0.0081x elapsed=0:00:38.06    \nframe=   40 fps=1.0 q=42.0 size=       0KiB time=00:00:00.31 bitrate=   1.1kbits/s speed=0.00821x elapsed=0:00:38.59    \nframe=   40 fps=1.0 q=42.0 size=       0KiB time=00:00:00.31 bitrate=   1.1kbits/s speed=0.00809x elapsed=0:00:39.15    \nframe=   41 fps=1.0 q=42.0 size=       0KiB time=00:00:00.32 bitrate=   1.1kbits/s speed=0.00819x elapsed=0:00:39.70    \nframe=   42 fps=1.0 q=34.6 size=       0KiB time=00:00:00.33 bitrate=   1.1kbits/s speed=0.00828x elapsed=0:00:40.24    \nframe=   43 fps=1.1 q=40.8 size=       0KiB time=00:00:00.34 bitrate=   1.0kbits/s speed=0.00838x elapsed=0:00:40.74    \nframe=   44 fps=1.1 q=42.0 size=       0KiB time=00:00:00.35 bitrate=   1.0kbits/s speed=0.00848x elapsed=0:00:41.28    \nframe=   44 fps=1.1 q=42.0 size=       0KiB time=00:00:00.35 bitrate=   1.0kbits/s speed=0.00837x elapsed=0:00:41.83    \nframe=   45 fps=1.1 q=42.0 size=       0KiB time=00:00:00.35 bitrate=   1.0kbits/s speed=0.00845x elapsed=0:00:42.39    \nframe=   47 fps=1.1 q=40.6 size=       0KiB time=00:00:00.37 bitrate=   0.9kbits/s speed=0.00873x elapsed=0:00:42.97    \nframe=   47 fps=1.1 q=40.6 size=       0KiB time=00:00:00.37 bitrate=   0.9kbits/s speed=0.00862x elapsed=0:00:43.52    \nframe=   48 fps=1.1 q=42.0 size=       0KiB time=00:00:00.38 bitrate=   0.9kbits/s speed=0.0087x elapsed=0:00:44.06    \nframe=   48 fps=1.1 q=42.0 size=       0KiB time=00:00:00.38 bitrate=   0.9kbits/s speed=0.0086x elapsed=0:00:44.58    \nframe=   48 fps=1.1 q=42.0 size=       0KiB time=00:00:00.38 bitrate=   0.9kbits/s speed=0.0085x elapsed=0:00:45.11    \nframe=   48 fps=1.1 q=42.0 size=       0KiB time=00:00:00.38 bitrate=   0.9kbits/s speed=0.00839x elapsed=0:00:45.68    \nframe=   48 fps=1.0 q=42.0 size=       0KiB time=00:00:00.38 bitrate=   0.9kbits/s speed=0.00829x elapsed=0:00:46.24    \nframe=   48 fps=1.0 q=42.0 size=       0KiB time=00:00:00.38 bitrate=   0.9kbits/s speed=0.00819x elapsed=0:00:46.80    \nframe=   48 fps=1.0 q=42.0 size=       0KiB time=00:00:00.38 bitrate=   0.9kbits/s speed=0.00809x elapsed=0:00:47.36    \nframe=   49 fps=1.0 q=41.0 size=       0KiB time=00:00:00.39 bitrate=   0.9kbits/s speed=0.00818x elapsed=0:00:47.88    \nframe=   49 fps=1.0 q=41.0 size=       0KiB time=00:00:00.39 bitrate=   0.9kbits/s speed=0.00809x elapsed=0:00:48.41    \nframe=   51 fps=1.0 q=40.5 size=       0KiB time=00:00:00.40 bitrate=   0.9kbits/s speed=0.00834x elapsed=0:00:48.97    \nframe=   52 fps=1.0 q=40.9 size=       0KiB time=00:00:00.41 bitrate=   0.8kbits/s speed=0.00841x elapsed=0:00:49.53    \nframe=   52 fps=1.0 q=40.9 size=       0KiB time=00:00:00.41 bitrate=   0.8kbits/s speed=0.00832x elapsed=0:00:50.05    \nframe=   52 fps=1.0 q=40.9 size=       0KiB time=00:00:00.41 bitrate=   0.8kbits/s speed=0.00823x elapsed=0:00:50.60    \nframe=   54 fps=1.1 q=34.6 size=       0KiB time=00:00:00.43 bitrate=   0.8kbits/s speed=0.00847x elapsed=0:00:51.14    \nframe=   55 fps=1.1 q=40.4 size=       0KiB time=00:00:00.44 bitrate=   0.8kbits/s speed=0.00854x elapsed=0:00:51.70    \nframe=   55 fps=1.1 q=40.4 size=       0KiB time=00:00:00.44 bitrate=   0.8kbits/s speed=0.00845x elapsed=0:00:52.27    \nframe=   55 fps=1.0 q=40.4 size=       0KiB time=00:00:00.44 bitrate=   0.8kbits/s speed=0.00836x elapsed=0:00:52.82    \nframe=   56 fps=1.0 q=40.9 size=       0KiB time=00:00:00.45 bitrate=   0.8kbits/s speed=0.00842x elapsed=0:00:53.41    \nframe=   57 fps=1.1 q=41.0 size=       0KiB time=00:00:00.45 bitrate=   0.8kbits/s speed=0.00849x elapsed=0:00:53.95    \nframe=   57 fps=1.0 q=41.0 size=       0KiB time=00:00:00.45 bitrate=   0.8kbits/s speed=0.00841x elapsed=0:00:54.47    \nframe=   58 fps=1.1 q=34.3 size=       0KiB time=00:00:00.46 bitrate=   0.8kbits/s speed=0.00848x elapsed=0:00:55.00    \nframe=   59 fps=1.1 q=40.6 size=       0KiB time=00:00:00.47 bitrate=   0.7kbits/s speed=0.00855x elapsed=0:00:55.54    \nframe=   59 fps=1.1 q=40.6 size=       0KiB time=00:00:00.47 bitrate=   0.7kbits/s speed=0.00847x elapsed=0:00:56.09    \nframe=   59 fps=1.0 q=40.6 size=       0KiB time=00:00:00.47 bitrate=   0.7kbits/s speed=0.00838x elapsed=0:00:56.67    \nframe=   60 fps=1.0 q=41.0 size=       0KiB time=00:00:00.48 bitrate=   0.7kbits/s speed=0.00845x elapsed=0:00:57.20    \nframe=   61 fps=1.1 q=41.0 size=       0KiB time=00:00:00.49 bitrate=   0.7kbits/s speed=0.00852x elapsed=0:00:57.72    \nframe=   62 fps=1.1 q=34.2 size=       0KiB time=00:00:00.50 bitrate=   0.7kbits/s speed=0.00858x elapsed=0:00:58.29    \nframe=   64 fps=1.1 q=40.9 size=       0KiB time=00:00:00.50 bitrate=   0.7kbits/s speed=0.00864x elapsed=0:00:58.85    \nframe=   64 fps=1.1 q=40.9 size=       0KiB time=00:00:00.51 bitrate=   0.7kbits/s speed=0.00869x elapsed=0:00:59.43    \nframe=   65 fps=1.1 q=41.0 size=       0KiB time=00:00:00.52 bitrate=   0.7kbits/s speed=0.00876x elapsed=0:00:59.95    \nframe=   65 fps=1.1 q=41.0 size=       0KiB time=00:00:00.52 bitrate=   0.7kbits/s speed=0.00868x elapsed=0:01:00.49    \nframe=   66 fps=1.1 q=34.9 size=       0KiB time=00:00:00.53 bitrate=   0.7kbits/s speed=0.00874x elapsed=0:01:01.03    \nframe=   67 fps=1.1 q=39.6 size=       0KiB time=00:00:00.54 bitrate=   0.6kbits/s speed=0.00879x elapsed=0:01:01.58    \nframe=   67 fps=1.1 q=39.6 size=       0KiB time=00:00:00.54 bitrate=   0.6kbits/s speed=0.00872x elapsed=0:01:02.13    \nframe=   67 fps=1.1 q=39.6 size=       0KiB time=00:00:00.54 bitrate=   0.6kbits/s speed=0.00864x elapsed=0:01:02.66    \nframe=   68 fps=1.1 q=41.0 size=       0KiB time=00:00:00.55 bitrate=   0.6kbits/s speed=0.0087x elapsed=0:01:03.21    \nframe=   68 fps=1.1 q=41.0 size=       0KiB time=00:00:00.55 bitrate=   0.6kbits/s speed=0.00862x elapsed=0:01:03.77    \nframe=   69 fps=1.1 q=40.9 size=       0KiB time=00:00:00.55 bitrate=   0.6kbits/s speed=0.00868x elapsed=0:01:04.29    \nframe=   70 fps=1.1 q=33.7 size=       0KiB time=00:00:00.55 bitrate=   0.6kbits/s speed=0.00861x elapsed=0:01:04.85    \nframe=   70 fps=1.1 q=33.7 size=       0KiB time=00:00:00.56 bitrate=   0.6kbits/s speed=0.00867x elapsed=0:01:05.38    \nframe=   70 fps=1.1 q=33.7 size=       0KiB time=00:00:00.56 bitrate=   0.6kbits/s speed=0.0086x elapsed=0:01:05.91    \nframe=   71 fps=1.1 q=39.4 size=       0KiB time=00:00:00.57 bitrate=   0.6kbits/s speed=0.00865x elapsed=0:01:06.47    \nframe=   72 fps=1.1 q=40.9 size=       0KiB time=00:00:00.58 bitrate=   0.6kbits/s speed=0.0087x elapsed=0:01:07.02    \nframe=   72 fps=1.1 q=40.9 size=       0KiB time=00:00:00.58 bitrate=   0.6kbits/s speed=0.00863x elapsed=0:01:07.62    \nframe=   72 fps=1.1 q=40.9 size=       0KiB time=00:00:00.58 bitrate=   0.6kbits/s speed=0.00856x elapsed=0:01:08.17    \nframe=   73 fps=1.1 q=41.0 size=       0KiB time=00:00:00.59 bitrate=   0.6kbits/s speed=0.00861x elapsed=0:01:08.74    \nframe=   74 fps=1.1 q=34.7 size=       0KiB time=00:00:00.60 bitrate=   0.6kbits/s speed=0.00865x elapsed=0:01:09.37    \nframe=   76 fps=1.1 q=41.0 size=       0KiB time=00:00:00.61 bitrate=   0.6kbits/s speed=0.00881x elapsed=0:01:09.95    \nframe=   76 fps=1.1 q=41.0 size=       0KiB time=00:00:00.61 bitrate=   0.6kbits/s speed=0.00874x elapsed=0:01:10.57    \nframe=   76 fps=1.1 q=41.0 size=       0KiB time=00:00:00.61 bitrate=   0.6kbits/s speed=0.00867x elapsed=0:01:11.11    \nframe=   77 fps=1.1 q=41.0 size=       0KiB time=00:00:00.62 bitrate=   0.6kbits/s speed=0.00872x elapsed=0:01:11.65    \nframe=   78 fps=1.1 q=33.5 size=       0KiB time=00:00:00.63 bitrate=   0.6kbits/s speed=0.00877x elapsed=0:01:12.18    \nframe=   78 fps=1.1 q=33.5 size=       0KiB time=00:00:00.63 bitrate=   0.6kbits/s speed=0.00871x elapsed=0:01:12.73    \nframe=   79 fps=1.1 q=39.3 size=       0KiB time=00:00:00.64 bitrate=   0.5kbits/s speed=0.00875x elapsed=0:01:13.32    \nframe=   79 fps=1.1 q=39.3 size=       0KiB time=00:00:00.64 bitrate=   0.5kbits/s speed=0.00868x elapsed=0:01:13.89    \nframe=   79 fps=1.1 q=39.3 size=       0KiB time=00:00:00.64 bitrate=   0.5kbits/s speed=0.00861x elapsed=0:01:14.51    \nframe=   79 fps=1.1 q=39.3 size=       0KiB time=00:00:00.64 bitrate=   0.5kbits/s speed=0.00855x elapsed=0:01:15.03    \nframe=   80 fps=1.1 q=40.9 size=       0KiB time=00:00:00.65 bitrate=   0.5kbits/s speed=0.0086x elapsed=0:01:15.55    \nframe=   81 fps=1.1 q=40.9 size=       0KiB time=00:00:00.65 bitrate=   0.5kbits/s speed=0.00865x elapsed=0:01:16.08    \nframe=   83 fps=1.1 q=39.5 size=       0KiB time=00:00:00.67 bitrate=   0.5kbits/s speed=0.00881x elapsed=0:01:16.60    \nframe=   83 fps=1.1 q=39.5 size=       0KiB time=00:00:00.67 bitrate=   0.5kbits/s speed=0.00875x elapsed=0:01:17.15    \nframe=   84 fps=1.1 q=40.9 size=       0KiB time=00:00:00.68 bitrate=   0.5kbits/s speed=0.0088x elapsed=0:01:17.67    \nframe=   84 fps=1.1 q=40.9 size=       0KiB time=00:00:00.68 bitrate=   0.5kbits/s speed=0.00873x elapsed=0:01:18.26    \nframe=   85 fps=1.1 q=40.0 size=       0KiB time=00:00:00.69 bitrate=   0.5kbits/s speed=0.00878x elapsed=0:01:18.78    \nframe=   85 fps=1.1 q=40.0 size=       0KiB time=00:00:00.69 bitrate=   0.5kbits/s speed=0.00871x elapsed=0:01:19.37    \nframe=   86 fps=1.1 q=33.7 size=       0KiB time=00:00:00.70 bitrate=   0.5kbits/s speed=0.00876x elapsed=0:01:19.92    \nframe=   87 fps=1.1 q=39.4 size=       0KiB time=00:00:00.70 bitrate=   0.5kbits/s speed=0.0088x elapsed=0:01:20.44    \nframe=   88 fps=1.1 q=40.9 size=       0KiB time=00:00:00.71 bitrate=   0.5kbits/s speed=0.00885x elapsed=0:01:21.00    \nframe=   88 fps=1.1 q=40.9 size=       0KiB time=00:00:00.71 bitrate=   0.5kbits/s speed=0.00879x elapsed=0:01:21.53    \nframe=   88 fps=1.1 q=40.9 size=       0KiB time=00:00:00.71 bitrate=   0.5kbits/s speed=0.00873x elapsed=0:01:22.06    \nframe=   88 fps=1.1 q=40.9 size=       0KiB time=00:00:00.71 bitrate=   0.5kbits/s speed=0.00868x elapsed=0:01:22.58    \nframe=   88 fps=1.1 q=40.9 size=       0KiB time=00:00:00.71 bitrate=   0.5kbits/s speed=0.00862x elapsed=0:01:23.13    \nframe=   90 fps=1.1 q=34.3 size=       0KiB time=00:00:00.73 bitrate=   0.5kbits/s speed=0.00876x elapsed=0:01:23.67    \nframe=   91 fps=1.1 q=39.8 size=       0KiB time=00:00:00.73 bitrate=   0.5kbits/s speed=0.0087x elapsed=0:01:24.24    \nframe=   91 fps=1.1 q=39.8 size=       0KiB time=00:00:00.74 bitrate=   0.5kbits/s speed=0.00875x elapsed=0:01:24.80    \nframe=   92 fps=1.1 q=41.0 size=       0KiB time=00:00:00.75 bitrate=   0.5kbits/s speed=0.00879x elapsed=0:01:25.36    \nframe=   92 fps=1.1 q=41.0 size=       0KiB time=00:00:00.75 bitrate=   0.5kbits/s speed=0.00873x elapsed=0:01:25.91    \nframe=   93 fps=1.1 q=40.9 size=       0KiB time=00:00:00.75 bitrate=   0.5kbits/s speed=0.00877x elapsed=0:01:26.45    \nframe=   93 fps=1.1 q=40.9 size=       0KiB time=00:00:00.75 bitrate=   0.5kbits/s speed=0.00872x elapsed=0:01:26.98    \nframe=   93 fps=1.1 q=40.9 size=       0KiB time=00:00:00.75 bitrate=   0.5kbits/s speed=0.00867x elapsed=0:01:27.51    \nframe=   94 fps=1.1 q=41.0 size=       0KiB time=00:00:00.76 bitrate=   0.5kbits/s speed=0.00871x elapsed=0:01:28.03    \nframe=   95 fps=1.1 q=34.3 size=       0KiB time=00:00:00.77 bitrate=   0.5kbits/s speed=0.00875x elapsed=0:01:28.56    \nframe=   96 fps=1.1 q=39.6 size=       0KiB time=00:00:00.78 bitrate=   0.4kbits/s speed=0.00879x elapsed=0:01:29.12    \nframe=   96 fps=1.1 q=39.6 size=       0KiB time=00:00:00.78 bitrate=   0.4kbits/s speed=0.00873x elapsed=0:01:29.72    \nframe=   96 fps=1.1 q=39.6 size=       0KiB time=00:00:00.78 bitrate=   0.4kbits/s speed=0.00868x elapsed=0:01:30.26    \nframe=   97 fps=1.1 q=41.0 size=       0KiB time=00:00:00.79 bitrate=   0.4kbits/s speed=0.00872x elapsed=0:01:30.81    \nframe=   97 fps=1.1 q=41.0 size=       0KiB time=00:00:00.79 bitrate=   0.4kbits/s speed=0.00867x elapsed=0:01:31.36    \nframe=   98 fps=1.1 q=41.0 size=       0KiB time=00:00:00.80 bitrate=   0.4kbits/s speed=0.0087x elapsed=0:01:31.94    \nframe=   98 fps=1.1 q=41.0 size=       0KiB time=00:00:00.80 bitrate=   0.4kbits/s speed=0.00865x elapsed=0:01:32.50    \nframe=   98 fps=1.1 q=41.0 size=       0KiB time=00:00:00.80 bitrate=   0.4kbits/s speed=0.0086x elapsed=0:01:33.07    \nframe=   99 fps=1.1 q=41.0 size=       0KiB time=00:00:00.80 bitrate=   0.4kbits/s speed=0.00863x elapsed=0:01:33.66    \nframe=   99 fps=1.1 q=41.0 size=       0KiB time=00:00:00.80 bitrate=   0.4kbits/s speed=0.00858x elapsed=0:01:34.22    \nframe=   99 fps=1.0 q=41.0 size=       0KiB time=00:00:00.80 bitrate=   0.4kbits/s speed=0.00853x elapsed=0:01:34.79    \nframe=  100 fps=1.0 q=34.8 size=       0KiB time=00:00:00.81 bitrate=   0.4kbits/s speed=0.00857x elapsed=0:01:35.34    \nframe=  100 fps=1.0 q=34.8 size=       0KiB time=00:00:00.81 bitrate=   0.4kbits/s speed=0.00851x elapsed=0:01:35.93    \nframe=  101 fps=1.0 q=36.0 size=       0KiB time=00:00:00.82 bitrate=   0.4kbits/s speed=0.00854x elapsed=0:01:36.55    \nframe=  101 fps=1.0 q=36.0 size=       0KiB time=00:00:00.82 bitrate=   0.4kbits/s speed=0.0085x elapsed=0:01:37.08    \nframe=  102 fps=1.0 q=41.0 size=       0KiB time=00:00:00.83 bitrate=   0.4kbits/s speed=0.00853x elapsed=0:01:37.65    \nframe=  102 fps=1.0 q=41.0 size=       0KiB time=00:00:00.83 bitrate=   0.4kbits/s speed=0.00848x elapsed=0:01:38.22    \nframe=  102 fps=1.0 q=41.0 size=       0KiB time=00:00:00.83 bitrate=   0.4kbits/s speed=0.00844x elapsed=0:01:38.76    \nframe=  103 fps=1.0 q=40.9 size=       0KiB time=00:00:00.84 bitrate=   0.4kbits/s speed=0.00847x elapsed=0:01:39.31    \nframe=  104 fps=1.0 q=40.9 size=       0KiB time=00:00:00.85 bitrate=   0.4kbits/s speed=0.00851x elapsed=0:01:39.87    \nframe=  104 fps=1.0 q=40.9 size=       0KiB time=00:00:00.85 bitrate=   0.4kbits/s speed=0.00846x elapsed=0:01:40.47    \nframe=  104 fps=1.0 q=40.9 size=       0KiB time=00:00:00.85 bitrate=   0.4kbits/s speed=0.00842x elapsed=0:01:40.99    \nframe=  104 fps=1.0 q=40.9 size=       0KiB time=00:00:00.85 bitrate=   0.4kbits/s speed=0.00837x elapsed=0:01:41.55    \nframe=  104 fps=1.0 q=40.9 size=       0KiB time=00:00:00.85 bitrate=   0.4kbits/s speed=0.00833x elapsed=0:01:42.09    \nframe=  104 fps=1.0 q=40.9 size=       0KiB time=00:00:00.85 bitrate=   0.4kbits/s speed=0.00828x elapsed=0:01:42.64    \nframe=  104 fps=1.0 q=40.9 size=       0KiB time=00:00:00.85 bitrate=   0.4kbits/s speed=0.00824x elapsed=0:01:43.19    \nframe=  105 fps=1.0 q=35.9 size=       0KiB time=00:00:00.85 bitrate=   0.4kbits/s speed=0.00828x elapsed=0:01:43.71    \nframe=  106 fps=1.0 q=37.1 size=       0KiB time=00:00:00.86 bitrate=   0.4kbits/s speed=0.00831x elapsed=0:01:44.23    \nframe=  107 fps=1.0 q=40.9 size=       0KiB time=00:00:00.87 bitrate=   0.4kbits/s speed=0.00835x elapsed=0:01:44.75    \nframe=  107 fps=1.0 q=40.9 size=       0KiB time=00:00:00.87 bitrate=   0.4kbits/s speed=0.00831x elapsed=0:01:45.26    \nframe=  108 fps=1.0 q=41.0 size=       0KiB time=00:00:00.88 bitrate=   0.4kbits/s speed=0.00835x elapsed=0:01:45.78    \nframe=  110 fps=1.0 q=34.4 size=       0KiB time=00:00:00.90 bitrate=   0.4kbits/s speed=0.00847x elapsed=0:01:46.30    \nframe=  111 fps=1.0 q=39.5 size=     256KiB time=00:00:00.90 bitrate=2309.2kbits/s speed=0.0085x elapsed=0:01:46.83    \nframe=  112 fps=1.0 q=41.0 size=     256KiB time=00:00:00.91 bitrate=2288.2kbits/s speed=0.00854x elapsed=0:01:47.35    \nframe=  113 fps=1.0 q=41.0 size=     256KiB time=00:00:00.92 bitrate=2267.6kbits/s speed=0.00857x elapsed=0:01:47.87    \nframe=  114 fps=1.1 q=35.1 size=     256KiB time=00:00:00.93 bitrate=2247.3kbits/s speed=0.00861x elapsed=0:01:48.39    \nframe=  115 fps=1.1 q=39.4 size=     256KiB time=00:00:00.94 bitrate=2227.4kbits/s speed=0.00865x elapsed=0:01:48.91    \nframe=  116 fps=1.1 q=40.9 size=     256KiB time=00:00:00.95 bitrate=2207.9kbits/s speed=0.00868x elapsed=0:01:49.42    \nframe=  116 fps=1.1 q=40.9 size=     256KiB time=00:00:00.95 bitrate=2207.9kbits/s speed=0.00864x elapsed=0:01:49.95    \nframe=  119 fps=1.1 q=39.1 size=     256KiB time=00:00:00.97 bitrate=2151.3kbits/s speed=0.00882x elapsed=0:01:50.48    \nframe=  119 fps=1.1 q=39.1 size=     256KiB time=00:00:00.97 bitrate=2151.3kbits/s speed=0.00878x elapsed=0:01:51.00    \nframe=  121 fps=1.1 q=41.0 size=     256KiB time=00:00:00.99 bitrate=2115.1kbits/s speed=0.00889x elapsed=0:01:51.53    \nframe=  122 fps=1.1 q=34.6 size=     256KiB time=00:00:01.00 bitrate=2097.5kbits/s speed=0.00892x elapsed=0:01:52.09    \nframe=  123 fps=1.1 q=39.5 size=     256KiB time=00:00:01.00 bitrate=2080.2kbits/s speed=0.00895x elapsed=0:01:52.61    \nframe=  124 fps=1.1 q=40.9 size=     256KiB time=00:00:01.01 bitrate=2063.1kbits/s speed=0.00898x elapsed=0:01:53.17    \nframe=  125 fps=1.1 q=41.0 size=     256KiB time=00:00:01.02 bitrate=2046.3kbits/s speed=0.00901x elapsed=0:01:53.72    \nframe=  126 fps=1.1 q=35.2 size=     256KiB time=00:00:01.03 bitrate=2029.8kbits/s speed=0.00904x elapsed=0:01:54.24    \nframe=  127 fps=1.1 q=39.3 size=     256KiB time=00:00:01.04 bitrate=2013.6kbits/s speed=0.00908x elapsed=0:01:54.78    \nframe=  128 fps=1.1 q=41.0 size=     256KiB time=00:00:01.05 bitrate=1997.6kbits/s speed=0.00911x elapsed=0:01:55.31    \nframe=  129 fps=1.1 q=41.0 size=     256KiB time=00:00:01.05 bitrate=1981.9kbits/s speed=0.00914x elapsed=0:01:55.82    \nframe=  130 fps=1.1 q=34.5 size=     256KiB time=00:00:01.06 bitrate=1966.4kbits/s speed=0.00917x elapsed=0:01:56.36    \nframe=  131 fps=1.1 q=39.1 size=     256KiB time=00:00:01.07 bitrate=1951.2kbits/s speed=0.0092x elapsed=0:01:56.88    \nframe=  132 fps=1.1 q=41.0 size=     256KiB time=00:00:01.08 bitrate=1936.2kbits/s speed=0.00923x elapsed=0:01:57.41    \nframe=  132 fps=1.1 q=41.0 size=     256KiB time=00:00:01.08 bitrate=1936.2kbits/s speed=0.00918x elapsed=0:01:57.95    \nframe=  133 fps=1.1 q=41.0 size=     256KiB time=00:00:01.09 bitrate=1921.4kbits/s speed=0.00921x elapsed=0:01:58.50    \nframe=  135 fps=1.1 q=39.3 size=     256KiB time=00:00:01.10 bitrate=1892.5kbits/s speed=0.00931x elapsed=0:01:59.04    \nframe=  136 fps=1.1 q=41.0 size=     256KiB time=00:00:01.11 bitrate=1878.4kbits/s speed=0.00934x elapsed=0:01:59.56    \nframe=  136 fps=1.1 q=41.0 size=     256KiB time=00:00:01.11 bitrate=1878.4kbits/s speed=0.0093x elapsed=0:02:00.07    \nframe=  137 fps=1.1 q=41.0 size=     256KiB time=00:00:01.12 bitrate=1864.4kbits/s speed=0.00933x elapsed=0:02:00.61    \nframe=  139 fps=1.1 q=39.4 size=     256KiB time=00:00:01.14 bitrate=1837.2kbits/s speed=0.00942x elapsed=0:02:01.14    \nframe=  140 fps=1.2 q=41.0 size=     256KiB time=00:00:01.15 bitrate=1823.9kbits/s speed=0.00945x elapsed=0:02:01.67    \nframe=  140 fps=1.1 q=41.0 size=     256KiB time=00:00:01.15 bitrate=1823.9kbits/s speed=0.00941x elapsed=0:02:02.19    \nframe=  141 fps=1.1 q=41.0 size=     256KiB time=00:00:01.15 bitrate=1810.8kbits/s speed=0.00944x elapsed=0:02:02.72    \nframe=  142 fps=1.2 q=35.3 size=     256KiB time=00:00:01.16 bitrate=1797.9kbits/s speed=0.00947x elapsed=0:02:03.25    \nframe=  143 fps=1.2 q=39.1 size=     256KiB time=00:00:01.17 bitrate=1785.1kbits/s speed=0.00949x elapsed=0:02:03.77    \nframe=  144 fps=1.2 q=41.0 size=     256KiB time=00:00:01.18 bitrate=1772.5kbits/s speed=0.00952x elapsed=0:02:04.33    \nframe=  145 fps=1.2 q=40.9 size=     256KiB time=00:00:01.19 bitrate=1760.1kbits/s speed=0.00954x elapsed=0:02:04.86    \nframe=  147 fps=1.2 q=39.7 size=     256KiB time=00:00:01.20 bitrate=1735.9kbits/s speed=0.00964x elapsed=0:02:05.39    \nframe=  148 fps=1.2 q=40.9 size=     256KiB time=00:00:01.21 bitrate=1724.0kbits/s speed=0.00966x elapsed=0:02:05.94    \nframe=  148 fps=1.2 q=40.9 size=     256KiB time=00:00:01.21 bitrate=1724.0kbits/s speed=0.00962x elapsed=0:02:06.48    \nframe=  149 fps=1.2 q=40.9 size=     256KiB time=00:00:01.22 bitrate=1712.2kbits/s speed=0.00965x elapsed=0:02:07.00    \nframe=  150 fps=1.2 q=34.9 size=     256KiB time=00:00:01.23 bitrate=1700.7kbits/s speed=0.00967x elapsed=0:02:07.54    \nframe=  151 fps=1.2 q=39.6 size=     256KiB time=00:00:01.24 bitrate=1689.3kbits/s speed=0.00969x elapsed=0:02:08.07    \nframe=  152 fps=1.2 q=40.9 size=     256KiB time=00:00:01.25 bitrate=1678.0kbits/s speed=0.00972x elapsed=0:02:08.61    \nframe=  153 fps=1.2 q=41.0 size=     256KiB time=00:00:01.25 bitrate=1666.9kbits/s speed=0.00975x elapsed=0:02:09.12    \nframe=  153 fps=1.2 q=41.0 size=     256KiB time=00:00:01.25 bitrate=1666.9kbits/s speed=0.00971x elapsed=0:02:09.64    \nframe=  155 fps=1.2 q=39.6 size=     256KiB time=00:00:01.27 bitrate=1645.1kbits/s speed=0.0098x elapsed=0:02:10.16    \nframe=  156 fps=1.2 q=40.9 size=     256KiB time=00:00:01.28 bitrate=1634.4kbits/s speed=0.00982x elapsed=0:02:10.67    \nframe=  156 fps=1.2 q=40.9 size=     256KiB time=00:00:01.28 bitrate=1634.4kbits/s speed=0.00978x elapsed=0:02:11.19    \nframe=  158 fps=1.2 q=35.1 size=     256KiB time=00:00:01.30 bitrate=1613.5kbits/s speed=0.00987x elapsed=0:02:11.75    \nframe=  160 fps=1.2 q=41.0 size=     256KiB time=00:00:01.31 bitrate=1593.0kbits/s speed=0.00995x elapsed=0:02:12.27    \nframe=  161 fps=1.2 q=40.9 size=     256KiB time=00:00:01.32 bitrate=1583.0kbits/s speed=0.00998x elapsed=0:02:12.78    \nframe=  162 fps=1.2 q=34.9 size=     256KiB time=00:00:01.33 bitrate=1573.1kbits/s speed=0.01x elapsed=0:02:13.32    \nframe=  163 fps=1.2 q=39.6 size=     256KiB time=00:00:01.34 bitrate=1563.4kbits/s speed=0.01x elapsed=0:02:13.85    \nframe=  163 fps=1.2 q=39.6 size=     256KiB time=00:00:01.34 bitrate=1563.4kbits/s speed=0.00998x elapsed=0:02:14.39    \nframe=  165 fps=1.2 q=40.9 size=     256KiB time=00:00:01.35 bitrate=1544.2kbits/s speed=0.0101x elapsed=0:02:14.93    \nframe=  167 fps=1.2 q=39.9 size=     256KiB time=00:00:01.37 bitrate=1525.5kbits/s speed=0.0102x elapsed=0:02:15.44    \nframe=  168 fps=1.2 q=40.9 size=     256KiB time=00:00:01.38 bitrate=1516.3kbits/s speed=0.0102x elapsed=0:02:15.98    \nframe=  168 fps=1.2 q=40.9 size=     256KiB time=00:00:01.38 bitrate=1516.3kbits/s speed=0.0101x elapsed=0:02:16.51    \nframe=  169 fps=1.2 q=40.9 size=     256KiB time=00:00:01.39 bitrate=1507.2kbits/s speed=0.0102x elapsed=0:02:17.03    \nframe=  170 fps=1.2 q=40.9 size=     256KiB time=00:00:01.40 bitrate=1498.2kbits/s speed=0.0102x elapsed=0:02:17.56    \nframe=  171 fps=1.2 q=34.7 size=     256KiB time=00:00:01.40 bitrate=1489.4kbits/s speed=0.0102x elapsed=0:02:18.09    \nframe=  173 fps=1.2 q=41.0 size=     256KiB time=00:00:01.41 bitrate=1480.6kbits/s speed=0.0102x elapsed=0:02:18.62    \nframe=  173 fps=1.2 q=41.0 size=     256KiB time=00:00:01.42 bitrate=1471.9kbits/s speed=0.0102x elapsed=0:02:19.15    \nframe=  174 fps=1.2 q=41.0 size=     256KiB time=00:00:01.43 bitrate=1463.4kbits/s speed=0.0103x elapsed=0:02:19.68    \nframe=  175 fps=1.2 q=34.7 size=     256KiB time=00:00:01.44 bitrate=1454.9kbits/s speed=0.0103x elapsed=0:02:20.20    \nframe=  177 fps=1.3 q=40.9 size=     256KiB time=00:00:01.45 bitrate=1438.3kbits/s speed=0.0104x elapsed=0:02:20.75    \nframe=  177 fps=1.3 q=40.9 size=     256KiB time=00:00:01.45 bitrate=1438.3kbits/s speed=0.0103x elapsed=0:02:21.27    \nframe=  178 fps=1.3 q=40.9 size=     256KiB time=00:00:01.46 bitrate=1430.1kbits/s speed=0.0103x elapsed=0:02:21.82    \nframe=  180 fps=1.3 q=39.7 size=     256KiB time=00:00:01.48 bitrate=1414.0kbits/s speed=0.0104x elapsed=0:02:22.35    \nframe=  180 fps=1.3 q=39.7 size=     256KiB time=00:00:01.48 bitrate=1414.0kbits/s speed=0.0104x elapsed=0:02:22.88    \nframe=  181 fps=1.3 q=41.0 size=     256KiB time=00:00:01.49 bitrate=1406.1kbits/s speed=0.0104x elapsed=0:02:23.43    \nframe=  182 fps=1.3 q=40.9 size=     256KiB time=00:00:01.50 bitrate=1398.3kbits/s speed=0.0104x elapsed=0:02:23.95    \nframe=  184 fps=1.3 q=39.7 size=     256KiB time=00:00:01.51 bitrate=1383.0kbits/s speed=0.0105x elapsed=0:02:24.49    \nframe=  185 fps=1.3 q=41.0 size=     256KiB time=00:00:01.52 bitrate=1375.4kbits/s speed=0.0105x elapsed=0:02:25.01    \nframe=  185 fps=1.3 q=41.0 size=     256KiB time=00:00:01.52 bitrate=1375.4kbits/s speed=0.0105x elapsed=0:02:25.55    \nframe=  186 fps=1.3 q=41.0 size=     256KiB time=00:00:01.53 bitrate=1367.9kbits/s speed=0.0105x elapsed=0:02:26.07    \nframe=  188 fps=1.3 q=39.6 size=     256KiB time=00:00:01.55 bitrate=1353.2kbits/s speed=0.0106x elapsed=0:02:26.59    \nframe=  189 fps=1.3 q=40.9 size=     256KiB time=00:00:01.55 bitrate=1346.0kbits/s speed=0.0106x elapsed=0:02:27.11    \nframe=  189 fps=1.3 q=40.9 size=     256KiB time=00:00:01.55 bitrate=1346.0kbits/s speed=0.0106x elapsed=0:02:27.65    \nframe=  191 fps=1.3 q=35.6 size=     256KiB time=00:00:01.57 bitrate=1331.7kbits/s speed=0.0106x elapsed=0:02:28.20    \nframe=  193 fps=1.3 q=41.0 size=     256KiB time=00:00:01.59 bitrate=1317.8kbits/s speed=0.0107x elapsed=0:02:28.73    \nframe=  193 fps=1.3 q=41.0 size=     256KiB time=00:00:01.59 bitrate=1317.8kbits/s speed=0.0107x elapsed=0:02:29.25    \nframe=  194 fps=1.3 q=41.0 size=     256KiB time=00:00:01.60 bitrate=1310.9kbits/s speed=0.0107x elapsed=0:02:29.78    \nframe=  196 fps=1.3 q=39.5 size=     256KiB time=00:00:01.61 bitrate=1297.4kbits/s speed=0.0108x elapsed=0:02:30.31    \nframe=  197 fps=1.3 q=41.0 size=     256KiB time=00:00:01.62 bitrate=1290.8kbits/s speed=0.0108x elapsed=0:02:30.83    \nframe=  198 fps=1.3 q=41.0 size=     256KiB time=00:00:01.63 bitrate=1284.2kbits/s speed=0.0108x elapsed=0:02:31.34    \nframe=  198 fps=1.3 q=41.0 size=     256KiB time=00:00:01.63 bitrate=1284.2kbits/s speed=0.0108x elapsed=0:02:31.86    \nframe=  200 fps=1.3 q=39.5 size=     256KiB time=00:00:01.65 bitrate=1271.2kbits/s speed=0.0108x elapsed=0:02:32.37    \nframe=  200 fps=1.3 q=39.5 size=     256KiB time=00:00:01.65 bitrate=1271.2kbits/s speed=0.0108x elapsed=0:02:32.89    \nframe=  201 fps=1.3 q=41.0 size=     256KiB time=00:00:01.65 bitrate=1264.8kbits/s speed=0.0108x elapsed=0:02:33.44    \nframe=  202 fps=1.3 q=41.0 size=     256KiB time=00:00:01.66 bitrate=1258.5kbits/s speed=0.0108x elapsed=0:02:33.97    \nframe=  203 fps=1.3 q=34.2 size=     256KiB time=00:00:01.67 bitrate=1252.2kbits/s speed=0.0108x elapsed=0:02:34.50    \nframe=  204 fps=1.3 q=39.4 size=     256KiB time=00:00:01.68 bitrate=1246.0kbits/s speed=0.0109x elapsed=0:02:35.02    \nframe=  205 fps=1.3 q=41.0 size=     256KiB time=00:00:01.69 bitrate=1239.9kbits/s speed=0.0109x elapsed=0:02:35.54    \nframe=  207 fps=1.3 q=35.0 size=     256KiB time=00:00:01.70 bitrate=1227.8kbits/s speed=0.0109x elapsed=0:02:36.06    \nframe=  208 fps=1.3 q=39.5 size=     256KiB time=00:00:01.71 bitrate=1221.8kbits/s speed=0.011x elapsed=0:02:36.58    \nframe=  209 fps=1.3 q=40.9 size=     256KiB time=00:00:01.72 bitrate=1215.9kbits/s speed=0.011x elapsed=0:02:37.12    \nframe=  209 fps=1.3 q=40.9 size=     256KiB time=00:00:01.72 bitrate=1215.9kbits/s speed=0.0109x elapsed=0:02:37.64    \nframe=  210 fps=1.3 q=41.0 size=     256KiB time=00:00:01.73 bitrate=1210.1kbits/s speed=0.011x elapsed=0:02:38.19    \nframe=  211 fps=1.3 q=34.2 size=     256KiB time=00:00:01.74 bitrate=1204.3kbits/s speed=0.011x elapsed=0:02:38.74    \nframe=  212 fps=1.3 q=39.6 size=     512KiB time=00:00:01.75 bitrate=2396.9kbits/s speed=0.011x elapsed=0:02:39.30    \nframe=  213 fps=1.3 q=41.0 size=     512KiB time=00:00:01.75 bitrate=2385.6kbits/s speed=0.011x elapsed=0:02:39.82    \nframe=  213 fps=1.3 q=41.0 size=     512KiB time=00:00:01.75 bitrate=2385.6kbits/s speed=0.011x elapsed=0:02:40.36    \nframe=  213 fps=1.3 q=41.0 size=     512KiB time=00:00:01.75 bitrate=2385.6kbits/s speed=0.0109x elapsed=0:02:40.91    \nframe=  215 fps=1.3 q=35.6 size=     512KiB time=00:00:01.77 bitrate=2363.2kbits/s speed=0.011x elapsed=0:02:41.44    \nframe=  216 fps=1.3 q=39.2 size=     512KiB time=00:00:01.78 bitrate=2352.1kbits/s speed=0.011x elapsed=0:02:41.97    \nframe=  217 fps=1.3 q=40.9 size=     512KiB time=00:00:01.79 bitrate=2341.2kbits/s speed=0.011x elapsed=0:02:42.48    \nframe=  218 fps=1.3 q=41.0 size=     512KiB time=00:00:01.80 bitrate=2330.4kbits/s speed=0.011x elapsed=0:02:43.00    \nframe=  220 fps=1.3 q=39.4 size=     512KiB time=00:00:01.81 bitrate=2309.0kbits/s speed=0.0111x elapsed=0:02:43.52    \nframe=  221 fps=1.3 q=41.0 size=     512KiB time=00:00:01.82 bitrate=2298.4kbits/s speed=0.0111x elapsed=0:02:44.07    \nframe=  221 fps=1.3 q=41.0 size=     512KiB time=00:00:01.82 bitrate=2298.4kbits/s speed=0.0111x elapsed=0:02:44.59    \nframe=  222 fps=1.3 q=40.9 size=     512KiB time=00:00:01.83 bitrate=2288.0kbits/s speed=0.0111x elapsed=0:02:45.12    \nframe=  223 fps=1.3 q=34.9 size=     512KiB time=00:00:01.84 bitrate=2277.6kbits/s speed=0.0111x elapsed=0:02:45.67    \nframe=  223 fps=1.3 q=34.9 size=     512KiB time=00:00:01.84 bitrate=2277.6kbits/s speed=0.0111x elapsed=0:02:46.20    \nframe=  224 fps=1.3 q=39.6 size=     512KiB time=00:00:01.85 bitrate=2267.4kbits/s speed=0.0111x elapsed=0:02:46.72    \nframe=  225 fps=1.3 q=41.0 size=     512KiB time=00:00:01.85 bitrate=2257.2kbits/s speed=0.0111x elapsed=0:02:47.23    \nframe=  226 fps=1.3 q=41.0 size=     512KiB time=00:00:01.86 bitrate=2247.1kbits/s speed=0.0111x elapsed=0:02:47.77    \nframe=  227 fps=1.3 q=35.3 size=     512KiB time=00:00:01.87 bitrate=2237.1kbits/s speed=0.0111x elapsed=0:02:48.29    \nframe=  228 fps=1.4 q=39.6 size=     512KiB time=00:00:01.88 bitrate=2227.3kbits/s speed=0.0112x elapsed=0:02:48.83    \nframe=  229 fps=1.4 q=41.0 size=     512KiB time=00:00:01.88 bitrate=2227.3kbits/s speed=0.0111x elapsed=0:02:49.37    \nframe=  230 fps=1.4 q=41.0 size=     512KiB time=00:00:01.90 bitrate=2207.7kbits/s speed=0.0112x elapsed=0:02:49.91    \nframe=  232 fps=1.4 q=39.7 size=     512KiB time=00:00:01.91 bitrate=2188.5kbits/s speed=0.0112x elapsed=0:02:50.43    \nframe=  233 fps=1.4 q=41.0 size=     512KiB time=00:00:01.91 bitrate=2188.5kbits/s speed=0.0112x elapsed=0:02:50.95    \nframe=  234 fps=1.4 q=41.9 size=     512KiB time=00:00:01.93 bitrate=2169.7kbits/s speed=0.0113x elapsed=0:02:51.47    \nframe=  236 fps=1.4 q=39.6 size=     512KiB time=00:00:01.95 bitrate=2151.1kbits/s speed=0.0113x elapsed=0:02:51.99    \nframe=  237 fps=1.4 q=41.0 size=     512KiB time=00:00:01.95 bitrate=2142.0kbits/s speed=0.0114x elapsed=0:02:52.51    \nframe=  240 fps=1.4 q=39.6 size=     512KiB time=00:00:01.98 bitrate=2115.0kbits/s speed=0.0115x elapsed=0:02:53.02    \nframe=  242 fps=1.4 q=42.0 size=     512KiB time=00:00:02.00 bitrate=2097.3kbits/s speed=0.0115x elapsed=0:02:53.55    \nframe=  242 fps=1.4 q=42.0 size=     512KiB time=00:00:02.00 bitrate=2097.3kbits/s speed=0.0115x elapsed=0:02:54.08    \nframe=  243 fps=1.4 q=34.8 size=     512KiB time=00:00:02.00 bitrate=2088.6kbits/s speed=0.0115x elapsed=0:02:54.59    \nframe=  244 fps=1.4 q=39.6 size=     512KiB time=00:00:02.01 bitrate=2080.0kbits/s speed=0.0115x elapsed=0:02:55.12    \nframe=  245 fps=1.4 q=41.0 size=     512KiB time=00:00:02.02 bitrate=2071.4kbits/s speed=0.0115x elapsed=0:02:55.66    \nframe=  246 fps=1.4 q=42.0 size=     512KiB time=00:00:02.03 bitrate=2062.9kbits/s speed=0.0115x elapsed=0:02:56.18    \nframe=  248 fps=1.4 q=39.5 size=     512KiB time=00:00:02.05 bitrate=2046.2kbits/s speed=0.0116x elapsed=0:02:56.71    \nframe=  249 fps=1.4 q=41.0 size=     512KiB time=00:00:02.05 bitrate=2037.9kbits/s speed=0.0116x elapsed=0:02:57.24    \nframe=  249 fps=1.4 q=41.0 size=     512KiB time=00:00:02.05 bitrate=2037.9kbits/s speed=0.0116x elapsed=0:02:57.76    \nframe=  250 fps=1.4 q=42.0 size=     512KiB time=00:00:02.06 bitrate=2029.7kbits/s speed=0.0116x elapsed=0:02:58.31    \nframe=  251 fps=1.4 q=31.9 size=     512KiB time=00:00:02.07 bitrate=2021.5kbits/s speed=0.0116x elapsed=0:02:58.84    \nframe=  252 fps=1.4 q=34.9 size=     512KiB time=00:00:02.08 bitrate=2013.4kbits/s speed=0.0116x elapsed=0:02:59.36    \nframe=  253 fps=1.4 q=40.8 size=     512KiB time=00:00:02.09 bitrate=2005.4kbits/s speed=0.0116x elapsed=0:02:59.88    \nframe=  254 fps=1.4 q=42.0 size=     512KiB time=00:00:02.10 bitrate=1997.5kbits/s speed=0.0116x elapsed=0:03:00.40    \nframe=  256 fps=1.4 q=42.0 size=     512KiB time=00:00:02.11 bitrate=1981.7kbits/s speed=0.0117x elapsed=0:03:00.93    \nframe=  258 fps=1.4 q=40.4 size=     512KiB time=00:00:02.13 bitrate=1966.2kbits/s speed=0.0118x elapsed=0:03:01.44    \nframe=  260 fps=1.4 q=41.9 size=     512KiB time=00:00:02.15 bitrate=1951.0kbits/s speed=0.0118x elapsed=0:03:01.95    \nframe=  262 fps=1.4 q=40.5 size=     512KiB time=00:00:02.16 bitrate=1936.0kbits/s speed=0.0119x elapsed=0:03:02.47    \nframe=  264 fps=1.4 q=42.0 size=     512KiB time=00:00:02.18 bitrate=1921.2kbits/s speed=0.0119x elapsed=0:03:02.98    \nframe=  265 fps=1.4 q=35.6 size=     512KiB time=00:00:02.19 bitrate=1913.9kbits/s speed=0.0119x elapsed=0:03:03.50    \nframe=  267 fps=1.5 q=42.0 size=     512KiB time=00:00:02.20 bitrate=1899.5kbits/s speed=0.012x elapsed=0:03:04.01    \nframe=  269 fps=1.5 q=42.0 size=     512KiB time=00:00:02.22 bitrate=1885.2kbits/s speed=0.0121x elapsed=0:03:04.54    \nframe=  271 fps=1.5 q=40.4 size=     512KiB time=00:00:02.24 bitrate=1871.2kbits/s speed=0.0121x elapsed=0:03:05.06    \nframe=  273 fps=1.5 q=42.0 size=     512KiB time=00:00:02.25 bitrate=1857.4kbits/s speed=0.0122x elapsed=0:03:05.58    \nframe=  275 fps=1.5 q=40.1 size=     512KiB time=00:00:02.27 bitrate=1843.8kbits/s speed=0.0122x elapsed=0:03:06.10    \nframe=  277 fps=1.5 q=42.0 size=     512KiB time=00:00:02.29 bitrate=1830.4kbits/s speed=0.0123x elapsed=0:03:06.61    \nframe=  280 fps=1.5 q=41.9 size=     512KiB time=00:00:02.31 bitrate=1810.6kbits/s speed=0.0124x elapsed=0:03:07.13    \nframe=  282 fps=1.5 q=35.5 size=     512KiB time=00:00:02.33 bitrate=1797.7kbits/s speed=0.0124x elapsed=0:03:07.64    \nframe=  284 fps=1.5 q=42.0 size=     512KiB time=00:00:02.35 bitrate=1785.0kbits/s speed=0.0125x elapsed=0:03:08.17    \nframe=  286 fps=1.5 q=36.0 size=     512KiB time=00:00:02.36 bitrate=1772.4kbits/s speed=0.0125x elapsed=0:03:08.68    \nframe=  288 fps=1.5 q=42.0 size=     512KiB time=00:00:02.38 bitrate=1760.0kbits/s speed=0.0126x elapsed=0:03:09.20    \nframe=  290 fps=1.5 q=36.2 size=     512KiB time=00:00:02.40 bitrate=1747.8kbits/s speed=0.0126x elapsed=0:03:09.73    \nframe=  293 fps=1.5 q=42.0 size=     512KiB time=00:00:02.42 bitrate=1729.8kbits/s speed=0.0127x elapsed=0:03:10.23    \nframe=  295 fps=1.5 q=40.5 size=     512KiB time=00:00:02.44 bitrate=1717.9kbits/s speed=0.0128x elapsed=0:03:10.77    \nframe=  298 fps=1.6 q=35.6 size=     512KiB time=00:00:02.46 bitrate=1700.5kbits/s speed=0.0129x elapsed=0:03:11.28    \nframe=  300 fps=1.6 q=42.0 size=     512KiB time=00:00:02.48 bitrate=1689.1kbits/s speed=0.0129x elapsed=0:03:11.80    \nframe=  301 fps=1.6 q=42.0 size=     512KiB time=00:00:02.49 bitrate=1683.5kbits/s speed=0.013x elapsed=0:03:12.32    \nframe=  304 fps=1.6 q=42.0 size=     768KiB time=00:00:02.51 bitrate=2500.1kbits/s speed=0.0131x elapsed=0:03:12.83    \nframe=  306 fps=1.6 q=35.7 size=     768KiB time=00:00:02.53 bitrate=2483.6kbits/s speed=0.0131x elapsed=0:03:13.35    \nframe=  309 fps=1.6 q=42.0 size=     768KiB time=00:00:02.55 bitrate=2459.3kbits/s speed=0.0132x elapsed=0:03:13.85    \nframe=  310 fps=1.6 q=34.8 size=     768KiB time=00:00:02.56 bitrate=2451.4kbits/s speed=0.0132x elapsed=0:03:14.38    \nframe=  312 fps=1.6 q=42.0 size=     768KiB time=00:00:02.58 bitrate=2435.5kbits/s speed=0.0133x elapsed=0:03:14.89    \nframe=  315 fps=1.6 q=40.6 size=     768KiB time=00:00:02.60 bitrate=2412.2kbits/s speed=0.0133x elapsed=0:03:15.41    \nframe=  317 fps=1.6 q=42.0 size=     768KiB time=00:00:02.62 bitrate=2396.9kbits/s speed=0.0134x elapsed=0:03:15.95    \nframe=  319 fps=1.6 q=40.6 size=     768KiB time=00:00:02.64 bitrate=2381.8kbits/s speed=0.0134x elapsed=0:03:16.47    \nframe=  321 fps=1.6 q=42.0 size=     768KiB time=00:00:02.65 bitrate=2366.8kbits/s speed=0.0135x elapsed=0:03:16.98    \nframe=  323 fps=1.6 q=40.4 size=     768KiB time=00:00:02.67 bitrate=2352.1kbits/s speed=0.0135x elapsed=0:03:17.53    \nframe=  325 fps=1.6 q=42.0 size=     768KiB time=00:00:02.69 bitrate=2337.5kbits/s speed=0.0136x elapsed=0:03:18.10    \nframe=  326 fps=1.6 q=36.0 size=     768KiB time=00:00:02.70 bitrate=2330.3kbits/s speed=0.0136x elapsed=0:03:18.62    \nframe=  327 fps=1.6 q=40.7 size=     768KiB time=00:00:02.70 bitrate=2323.1kbits/s speed=0.0136x elapsed=0:03:19.12    \nframe=  330 fps=1.7 q=36.0 size=     768KiB time=00:00:02.73 bitrate=2301.9kbits/s speed=0.0137x elapsed=0:03:19.65    \nframe=  332 fps=1.7 q=42.0 size=     768KiB time=00:00:02.75 bitrate=2287.9kbits/s speed=0.0137x elapsed=0:03:20.17    \nframe=  334 fps=1.7 q=35.7 size=     768KiB time=00:00:02.76 bitrate=2274.1kbits/s speed=0.0138x elapsed=0:03:20.69    \nframe=  337 fps=1.7 q=42.0 size=     768KiB time=00:00:02.79 bitrate=2253.8kbits/s speed=0.0139x elapsed=0:03:21.20    \nframe=  339 fps=1.7 q=40.6 size=     768KiB time=00:00:02.80 bitrate=2240.4kbits/s speed=0.0139x elapsed=0:03:21.72    \nframe=  341 fps=1.7 q=42.0 size=     768KiB time=00:00:02.82 bitrate=2227.2kbits/s speed=0.014x elapsed=0:03:22.23    \nframe=  343 fps=1.7 q=40.4 size=     768KiB time=00:00:02.84 bitrate=2214.1kbits/s speed=0.014x elapsed=0:03:22.75    \nframe=  344 fps=1.7 q=42.0 size=     768KiB time=00:00:02.85 bitrate=2207.7kbits/s speed=0.014x elapsed=0:03:23.27    \nframe=  346 fps=1.7 q=36.4 size=     768KiB time=00:00:02.86 bitrate=2194.8kbits/s speed=0.0141x elapsed=0:03:23.79    \nframe=  349 fps=1.7 q=42.0 size=     768KiB time=00:00:02.89 bitrate=2175.8kbits/s speed=0.0142x elapsed=0:03:24.31    \nframe=  350 fps=1.7 q=36.1 size=     768KiB time=00:00:02.90 bitrate=2169.6kbits/s speed=0.0142x elapsed=0:03:24.84    \nframe=  352 fps=1.7 q=42.0 size=     768KiB time=00:00:02.91 bitrate=2157.2kbits/s speed=0.0142x elapsed=0:03:25.34    \nframe=  354 fps=1.7 q=35.3 size=     768KiB time=00:00:02.93 bitrate=2144.9kbits/s speed=0.0142x elapsed=0:03:25.86    \nframe=  355 fps=1.7 q=40.9 size=     768KiB time=00:00:02.94 bitrate=2138.9kbits/s speed=0.0143x elapsed=0:03:26.37    \nframe=  358 fps=1.7 q=41.9 size=     768KiB time=00:00:02.96 bitrate=2120.8kbits/s speed=0.0143x elapsed=0:03:26.89    \nframe=  359 fps=1.7 q=35.7 size=     768KiB time=00:00:02.97 bitrate=2114.9kbits/s speed=0.0143x elapsed=0:03:27.42    \nframe=  362 fps=1.7 q=41.9 size=     768KiB time=00:00:03.00 bitrate=2097.3kbits/s speed=0.0144x elapsed=0:03:27.94    \nframe=  364 fps=1.7 q=35.8 size=     768KiB time=00:00:03.01 bitrate=2085.7kbits/s speed=0.0145x elapsed=0:03:28.46    \nframe=  367 fps=1.8 q=42.0 size=     768KiB time=00:00:03.04 bitrate=2068.5kbits/s speed=0.0146x elapsed=0:03:28.97    \nframe=  369 fps=1.8 q=40.1 size=     768KiB time=00:00:03.05 bitrate=2057.3kbits/s speed=0.0146x elapsed=0:03:29.49    \nframe=  371 fps=1.8 q=41.9 size=     768KiB time=00:00:03.07 bitrate=2046.1kbits/s speed=0.0146x elapsed=0:03:30.00    \nframe=  373 fps=1.8 q=40.4 size=     768KiB time=00:00:03.09 bitrate=2035.1kbits/s speed=0.0147x elapsed=0:03:30.52    \nframe=  375 fps=1.8 q=42.0 size=     768KiB time=00:00:03.10 bitrate=2024.2kbits/s speed=0.0147x elapsed=0:03:31.02    \nframe=  377 fps=1.8 q=40.5 size=     768KiB time=00:00:03.12 bitrate=2013.4kbits/s speed=0.0148x elapsed=0:03:31.55    \nframe=  379 fps=1.8 q=42.0 size=     768KiB time=00:00:03.14 bitrate=2002.7kbits/s speed=0.0148x elapsed=0:03:32.07    \nframe=  381 fps=1.8 q=40.1 size=     768KiB time=00:00:03.15 bitrate=1992.1kbits/s speed=0.0149x elapsed=0:03:32.59    \nframe=  383 fps=1.8 q=42.0 size=     768KiB time=00:00:03.17 bitrate=1981.7kbits/s speed=0.0149x elapsed=0:03:33.11    \nframe=  385 fps=1.8 q=40.5 size=     768KiB time=00:00:03.19 bitrate=1971.3kbits/s speed=0.0149x elapsed=0:03:33.62    \nframe=  387 fps=1.8 q=42.0 size=     768KiB time=00:00:03.20 bitrate=1961.1kbits/s speed=0.015x elapsed=0:03:34.14    \nframe=  389 fps=1.8 q=40.2 size=     768KiB time=00:00:03.22 bitrate=1950.9kbits/s speed=0.015x elapsed=0:03:34.67    \nframe=  391 fps=1.8 q=42.0 size=     768KiB time=00:00:03.24 bitrate=1940.9kbits/s speed=0.0151x elapsed=0:03:35.17    \nframe=  393 fps=1.8 q=40.7 size=     768KiB time=00:00:03.25 bitrate=1931.0kbits/s speed=0.0151x elapsed=0:03:35.69    \nframe=  395 fps=1.8 q=41.9 size=     768KiB time=00:00:03.27 bitrate=1921.2kbits/s speed=0.0151x elapsed=0:03:36.20    \nframe=  398 fps=1.8 q=40.4 size=     768KiB time=00:00:03.30 bitrate=1906.6kbits/s speed=0.0152x elapsed=0:03:36.72    \nframe=  400 fps=1.8 q=42.0 size=     768KiB time=00:00:03.31 bitrate=1897.0kbits/s speed=0.0153x elapsed=0:03:37.23    \nframe=  401 fps=1.8 q=36.0 size=     768KiB time=00:00:03.32 bitrate=1892.3kbits/s speed=0.0153x elapsed=0:03:37.75    \nframe=  404 fps=1.9 q=42.0 size=     768KiB time=00:00:03.35 bitrate=1878.2kbits/s speed=0.0153x elapsed=0:03:38.27    \nframe=  405 fps=1.9 q=35.6 size=     768KiB time=00:00:03.35 bitrate=1873.5kbits/s speed=0.0153x elapsed=0:03:38.78    \nframe=  408 fps=1.9 q=41.9 size=     768KiB time=00:00:03.38 bitrate=1859.6kbits/s speed=0.0154x elapsed=0:03:39.30    \nframe=  410 fps=1.9 q=36.2 size=    1024KiB time=00:00:03.40 bitrate=2467.3kbits/s speed=0.0155x elapsed=0:03:39.81    \nframe=  412 fps=1.9 q=42.0 size=    1024KiB time=00:00:03.41 bitrate=2455.3kbits/s speed=0.0155x elapsed=0:03:40.33    \nframe=  413 fps=1.9 q=42.0 size=    1024KiB time=00:00:03.42 bitrate=2449.3kbits/s speed=0.0155x elapsed=0:03:40.85    \nframe=  413 fps=1.9 q=42.0 size=    1024KiB time=00:00:03.42 bitrate=2449.3kbits/s speed=0.0155x elapsed=0:03:41.36    \nframe=  416 fps=1.9 q=42.0 size=    1024KiB time=00:00:03.45 bitrate=2431.6kbits/s speed=0.0155x elapsed=0:03:41.88    \nframe=  417 fps=1.9 q=41.9 size=    1024KiB time=00:00:03.45 bitrate=2425.7kbits/s speed=0.0156x elapsed=0:03:42.39    \nframe=  420 fps=1.9 q=42.0 size=    1024KiB time=00:00:03.48 bitrate=2408.3kbits/s speed=0.0156x elapsed=0:03:42.91    \nframe=  422 fps=1.9 q=35.2 size=    1024KiB time=00:00:03.50 bitrate=2396.8kbits/s speed=0.0157x elapsed=0:03:43.43    \nframe=  424 fps=1.9 q=42.0 size=    1024KiB time=00:00:03.51 bitrate=2385.5kbits/s speed=0.0157x elapsed=0:03:43.94    \nframe=  425 fps=1.9 q=42.0 size=    1024KiB time=00:00:03.52 bitrate=2379.8kbits/s speed=0.0157x elapsed=0:03:44.46    \nframe=  428 fps=1.9 q=42.0 size=    1024KiB time=00:00:03.55 bitrate=2363.1kbits/s speed=0.0158x elapsed=0:03:44.98    \nframe=  430 fps=1.9 q=36.2 size=    1024KiB time=00:00:03.56 bitrate=2352.0kbits/s speed=0.0158x elapsed=0:03:45.50    \nframe=  431 fps=1.9 q=40.6 size=    1024KiB time=00:00:03.57 bitrate=2346.6kbits/s speed=0.0158x elapsed=0:03:46.01    \nframe=  434 fps=1.9 q=35.9 size=    1024KiB time=00:00:03.60 bitrate=2330.3kbits/s speed=0.0159x elapsed=0:03:46.53    \nframe=  436 fps=1.9 q=41.9 size=    1024KiB time=00:00:03.61 bitrate=2319.5kbits/s speed=0.0159x elapsed=0:03:47.06    \nframe=  438 fps=1.9 q=36.0 size=    1024KiB time=00:00:03.63 bitrate=2308.9kbits/s speed=0.016x elapsed=0:03:47.58    \nframe=  441 fps=1.9 q=42.0 size=    1024KiB time=00:00:03.65 bitrate=2293.1kbits/s speed=0.016x elapsed=0:03:48.10    \nframe=  442 fps=1.9 q=36.0 size=    1024KiB time=00:00:03.66 bitrate=2287.9kbits/s speed=0.016x elapsed=0:03:48.61    \nframe=  445 fps=1.9 q=42.0 size=    1024KiB time=00:00:03.69 bitrate=2272.4kbits/s speed=0.0161x elapsed=0:03:49.13    \nframe=  446 fps=1.9 q=35.6 size=    1024KiB time=00:00:03.70 bitrate=2267.3kbits/s speed=0.0161x elapsed=0:03:49.65    \nframe=  449 fps=2.0 q=42.0 size=    1024KiB time=00:00:03.72 bitrate=2252.1kbits/s speed=0.0162x elapsed=0:03:50.17    \nframe=  451 fps=2.0 q=40.4 size=    1024KiB time=00:00:03.74 bitrate=2242.0kbits/s speed=0.0162x elapsed=0:03:50.69    \nframe=  453 fps=2.0 q=42.0 size=    1024KiB time=00:00:03.75 bitrate=2232.1kbits/s speed=0.0163x elapsed=0:03:51.20    \nframe=  455 fps=2.0 q=40.7 size=    1024KiB time=00:00:03.77 bitrate=2222.2kbits/s speed=0.0163x elapsed=0:03:51.72    \nframe=  456 fps=2.0 q=41.9 size=    1024KiB time=00:00:03.78 bitrate=2217.3kbits/s speed=0.0163x elapsed=0:03:52.27    \nframe=  457 fps=2.0 q=41.9 size=    1024KiB time=00:00:03.79 bitrate=2212.5kbits/s speed=0.0163x elapsed=0:03:52.82    \nframe=  458 fps=2.0 q=35.9 size=    1024KiB time=00:00:03.80 bitrate=2207.6kbits/s speed=0.0163x elapsed=0:03:53.37    \nframe=  458 fps=2.0 q=35.9 size=    1024KiB time=00:00:03.80 bitrate=2207.6kbits/s speed=0.0162x elapsed=0:03:53.89    \nframe=  459 fps=2.0 q=40.6 size=    1024KiB time=00:00:03.80 bitrate=2202.8kbits/s speed=0.0162x elapsed=0:03:54.40    \nframe=  460 fps=2.0 q=42.0 size=    1024KiB time=00:00:03.81 bitrate=2198.0kbits/s speed=0.0162x elapsed=0:03:54.95    \nframe=  461 fps=2.0 q=42.0 size=    1024KiB time=00:00:03.82 bitrate=2193.2kbits/s speed=0.0162x elapsed=0:03:55.48    \nframe=  462 fps=2.0 q=35.7 size=    1024KiB time=00:00:03.83 bitrate=2188.4kbits/s speed=0.0162x elapsed=0:03:56.01    \nframe=  464 fps=2.0 q=42.0 size=    1024KiB time=00:00:03.85 bitrate=2179.0kbits/s speed=0.0163x elapsed=0:03:56.55    \nframe=  465 fps=2.0 q=42.0 size=    1024KiB time=00:00:03.85 bitrate=2174.2kbits/s speed=0.0163x elapsed=0:03:57.08    \nframe=  466 fps=2.0 q=36.0 size=    1024KiB time=00:00:03.86 bitrate=2169.6kbits/s speed=0.0163x elapsed=0:03:57.61    \nframe=  467 fps=2.0 q=40.4 size=    1024KiB time=00:00:03.87 bitrate=2164.9kbits/s speed=0.0163x elapsed=0:03:58.15    \nframe=  469 fps=2.0 q=42.0 size=    1024KiB time=00:00:03.89 bitrate=2155.6kbits/s speed=0.0163x elapsed=0:03:58.67    \nframe=  470 fps=2.0 q=35.8 size=    1024KiB time=00:00:03.90 bitrate=2151.0kbits/s speed=0.0163x elapsed=0:03:59.19    \nframe=  470 fps=2.0 q=35.8 size=    1024KiB time=00:00:03.90 bitrate=2151.0kbits/s speed=0.0163x elapsed=0:03:59.73    \nframe=  471 fps=2.0 q=40.6 size=    1024KiB time=00:00:03.90 bitrate=2146.4kbits/s speed=0.0163x elapsed=0:04:00.27    \nframe=  472 fps=2.0 q=42.0 size=    1024KiB time=00:00:03.91 bitrate=2141.9kbits/s speed=0.0163x elapsed=0:04:00.78    \nframe=  473 fps=2.0 q=41.9 size=    1024KiB time=00:00:03.92 bitrate=2137.3kbits/s speed=0.0163x elapsed=0:04:01.30    \nframe=  473 fps=2.0 q=41.9 size=    1024KiB time=00:00:03.92 bitrate=2137.3kbits/s speed=0.0162x elapsed=0:04:01.82    \nframe=  473 fps=2.0 q=41.9 size=    1024KiB time=00:00:03.92 bitrate=2137.3kbits/s speed=0.0162x elapsed=0:04:02.33    \nframe=  474 fps=2.0 q=36.0 size=    1024KiB time=00:00:03.93 bitrate=2132.8kbits/s speed=0.0162x elapsed=0:04:02.84    \nframe=  476 fps=2.0 q=41.9 size=    1024KiB time=00:00:03.95 bitrate=2123.8kbits/s speed=0.0162x elapsed=0:04:03.36    \nframe=  477 fps=2.0 q=42.0 size=    1024KiB time=00:00:03.95 bitrate=2119.3kbits/s speed=0.0162x elapsed=0:04:03.91    \nframe=  477 fps=2.0 q=42.0 size=    1024KiB time=00:00:03.95 bitrate=2119.3kbits/s speed=0.0162x elapsed=0:04:04.45    \nframe=  478 fps=2.0 q=35.9 size=    1024KiB time=00:00:03.96 bitrate=2114.9kbits/s speed=0.0162x elapsed=0:04:04.98    \nframe=  479 fps=2.0 q=40.4 size=    1024KiB time=00:00:03.97 bitrate=2110.4kbits/s speed=0.0162x elapsed=0:04:05.50    \nframe=  479 fps=1.9 q=40.4 size=    1024KiB time=00:00:03.97 bitrate=2110.4kbits/s speed=0.0162x elapsed=0:04:06.02    \nframe=  479 fps=1.9 q=40.4 size=    1024KiB time=00:00:03.97 bitrate=2110.4kbits/s speed=0.0161x elapsed=0:04:06.54    \nframe=  481 fps=1.9 q=41.9 size=    1024KiB time=00:00:03.99 bitrate=2101.6kbits/s speed=0.0162x elapsed=0:04:07.05    \nframe=  481 fps=1.9 q=41.9 size=    1024KiB time=00:00:03.99 bitrate=2101.6kbits/s speed=0.0161x elapsed=0:04:07.58    \nframe=  481 fps=1.9 q=41.9 size=    1024KiB time=00:00:03.99 bitrate=2101.6kbits/s speed=0.0161x elapsed=0:04:08.09    \nframe=  482 fps=1.9 q=35.8 size=    1024KiB time=00:00:04.00 bitrate=2097.2kbits/s speed=0.0161x elapsed=0:04:08.61    \nframe=  482 fps=1.9 q=35.8 size=    1024KiB time=00:00:04.00 bitrate=2097.2kbits/s speed=0.0161x elapsed=0:04:09.13    \nframe=  483 fps=1.9 q=40.7 size=    1024KiB time=00:00:04.00 bitrate=2092.9kbits/s speed=0.0161x elapsed=0:04:09.64    \nframe=  483 fps=1.9 q=40.7 size=    1024KiB time=00:00:04.00 bitrate=2092.9kbits/s speed=0.016x elapsed=0:04:10.16    \nframe=  483 fps=1.9 q=40.7 size=    1024KiB time=00:00:04.00 bitrate=2092.9kbits/s speed=0.016x elapsed=0:04:10.69    \nframe=  484 fps=1.9 q=41.9 size=    1024KiB time=00:00:04.01 bitrate=2088.5kbits/s speed=0.016x elapsed=0:04:11.20    \nframe=  485 fps=1.9 q=42.0 size=    1024KiB time=00:00:04.02 bitrate=2084.2kbits/s speed=0.016x elapsed=0:04:11.72    \nframe=  485 fps=1.9 q=42.0 size=    1024KiB time=00:00:04.02 bitrate=2084.2kbits/s speed=0.016x elapsed=0:04:12.23    \nframe=  485 fps=1.9 q=42.0 size=    1024KiB time=00:00:04.02 bitrate=2084.2kbits/s speed=0.0159x elapsed=0:04:12.75    \nframe=  486 fps=1.9 q=34.7 size=    1024KiB time=00:00:04.03 bitrate=2079.9kbits/s speed=0.0159x elapsed=0:04:13.26    \nframe=  486 fps=1.9 q=34.7 size=    1024KiB time=00:00:04.03 bitrate=2079.9kbits/s speed=0.0159x elapsed=0:04:13.78    \nframe=  487 fps=1.9 q=40.5 size=    1024KiB time=00:00:04.04 bitrate=2075.6kbits/s speed=0.0159x elapsed=0:04:14.29    \nframe=  488 fps=1.9 q=42.0 size=    1024KiB time=00:00:04.05 bitrate=2071.3kbits/s speed=0.0159x elapsed=0:04:14.81    \nframe=  489 fps=1.9 q=41.9 size=    1024KiB time=00:00:04.05 bitrate=2067.1kbits/s speed=0.0159x elapsed=0:04:15.33    \nframe=  489 fps=1.9 q=41.9 size=    1024KiB time=00:00:04.05 bitrate=2067.1kbits/s speed=0.0159x elapsed=0:04:15.84    \nframe=  489 fps=1.9 q=41.9 size=    1024KiB time=00:00:04.05 bitrate=2067.1kbits/s speed=0.0158x elapsed=0:04:16.35    \nframe=  489 fps=1.9 q=41.9 size=    1024KiB time=00:00:04.05 bitrate=2067.1kbits/s speed=0.0158x elapsed=0:04:16.87    \nframe=  489 fps=1.9 q=41.9 size=    1024KiB time=00:00:04.05 bitrate=2067.1kbits/s speed=0.0158x elapsed=0:04:17.39    \nframe=  490 fps=1.9 q=36.1 size=    1024KiB time=00:00:04.06 bitrate=2062.9kbits/s speed=0.0158x elapsed=0:04:17.91    \nframe=  490 fps=1.9 q=36.1 size=    1024KiB time=00:00:04.06 bitrate=2062.9kbits/s speed=0.0157x elapsed=0:04:18.41    \nframe=  491 fps=1.9 q=40.2 size=    1024KiB time=00:00:04.07 bitrate=2058.6kbits/s speed=0.0157x elapsed=0:04:18.93    \nframe=  491 fps=1.9 q=40.2 size=    1024KiB time=00:00:04.07 bitrate=2058.6kbits/s speed=0.0157x elapsed=0:04:19.45    \nframe=  493 fps=1.9 q=41.9 size=    1024KiB time=00:00:04.09 bitrate=2050.3kbits/s speed=0.0157x elapsed=0:04:19.96    \nframe=  493 fps=1.9 q=41.9 size=    1024KiB time=00:00:04.09 bitrate=2050.3kbits/s speed=0.0157x elapsed=0:04:20.48    \nframe=  493 fps=1.9 q=41.9 size=    1024KiB time=00:00:04.09 bitrate=2050.3kbits/s speed=0.0157x elapsed=0:04:21.00    \nframe=  493 fps=1.9 q=41.9 size=    1024KiB time=00:00:04.09 bitrate=2050.3kbits/s speed=0.0156x elapsed=0:04:21.52    \nframe=  493 fps=1.9 q=41.9 size=    1024KiB time=00:00:04.09 bitrate=2050.3kbits/s speed=0.0156x elapsed=0:04:22.03    \nframe=  494 fps=1.9 q=36.1 size=    1024KiB time=00:00:04.10 bitrate=2046.1kbits/s speed=0.0156x elapsed=0:04:22.54    \nframe=  494 fps=1.9 q=36.1 size=    1024KiB time=00:00:04.10 bitrate=2046.1kbits/s speed=0.0156x elapsed=0:04:23.06    \nframe=  495 fps=1.9 q=40.4 size=    1024KiB time=00:00:04.10 bitrate=2041.9kbits/s speed=0.0156x elapsed=0:04:23.57    \nframe=  495 fps=1.9 q=40.4 size=    1024KiB time=00:00:04.10 bitrate=2041.9kbits/s speed=0.0156x elapsed=0:04:24.09    \nframe=  495 fps=1.9 q=40.4 size=    1024KiB time=00:00:04.10 bitrate=2041.9kbits/s speed=0.0155x elapsed=0:04:24.60    \nframe=  495 fps=1.9 q=40.4 size=    1024KiB time=00:00:04.10 bitrate=2041.9kbits/s speed=0.0155x elapsed=0:04:25.12    \nframe=  495 fps=1.9 q=40.4 size=    1024KiB time=00:00:04.10 bitrate=2041.9kbits/s speed=0.0155x elapsed=0:04:25.64    \nframe=  496 fps=1.9 q=42.0 size=    1024KiB time=00:00:04.11 bitrate=2037.8kbits/s speed=0.0155x elapsed=0:04:26.15    \nframe=  497 fps=1.9 q=42.0 size=    1024KiB time=00:00:04.12 bitrate=2033.7kbits/s speed=0.0155x elapsed=0:04:26.67    \nframe=  497 fps=1.9 q=42.0 size=    1024KiB time=00:00:04.12 bitrate=2033.7kbits/s speed=0.0154x elapsed=0:04:27.18    \nframe=  497 fps=1.9 q=42.0 size=    1024KiB time=00:00:04.12 bitrate=2033.7kbits/s speed=0.0154x elapsed=0:04:27.71    \nframe=  497 fps=1.9 q=42.0 size=    1024KiB time=00:00:04.12 bitrate=2033.7kbits/s speed=0.0154x elapsed=0:04:28.21    \nframe=  498 fps=1.9 q=32.7 size=    1024KiB time=00:00:04.13 bitrate=2029.6kbits/s speed=0.0154x elapsed=0:04:28.74    \nframe=  498 fps=1.8 q=32.7 size=    1024KiB time=00:00:04.13 bitrate=2029.6kbits/s speed=0.0154x elapsed=0:04:29.24    \nframe=  499 fps=1.8 q=40.5 size=    1024KiB time=00:00:04.14 bitrate=2025.5kbits/s speed=0.0154x elapsed=0:04:29.76    \nframe=  499 fps=1.8 q=40.5 size=    1024KiB time=00:00:04.14 bitrate=2025.5kbits/s speed=0.0153x elapsed=0:04:30.28    \nframe=  500 fps=1.8 q=42.0 size=    1024KiB time=00:00:04.15 bitrate=2021.4kbits/s speed=0.0153x elapsed=0:04:30.79    \nframe=  501 fps=1.8 q=42.0 size=    1024KiB time=00:00:04.15 bitrate=2017.4kbits/s speed=0.0153x elapsed=0:04:31.31    \nframe=  502 fps=1.8 q=36.1 size=    1024KiB time=00:00:04.16 bitrate=2013.4kbits/s speed=0.0153x elapsed=0:04:31.83    \nframe=  502 fps=1.8 q=36.1 size=    1024KiB time=00:00:04.16 bitrate=2013.4kbits/s speed=0.0153x elapsed=0:04:32.34    \nframe=  503 fps=1.8 q=40.6 size=    1280KiB time=00:00:04.17 bitrate=2511.6kbits/s speed=0.0153x elapsed=0:04:32.86    \nframe=  504 fps=1.8 q=41.9 size=    1280KiB time=00:00:04.18 bitrate=2506.6kbits/s speed=0.0153x elapsed=0:04:33.38    \nframe=  505 fps=1.8 q=42.0 size=    1280KiB time=00:00:04.19 bitrate=2501.7kbits/s speed=0.0153x elapsed=0:04:33.89    \nframe=  505 fps=1.8 q=42.0 size=    1280KiB time=00:00:04.19 bitrate=2501.7kbits/s speed=0.0153x elapsed=0:04:34.41    \nframe=  505 fps=1.8 q=42.0 size=    1280KiB time=00:00:04.19 bitrate=2501.7kbits/s speed=0.0152x elapsed=0:04:34.92    \nframe=  506 fps=1.8 q=35.8 size=    1280KiB time=00:00:04.20 bitrate=2496.7kbits/s speed=0.0152x elapsed=0:04:35.44    \nframe=  506 fps=1.8 q=35.8 size=    1280KiB time=00:00:04.20 bitrate=2496.7kbits/s speed=0.0152x elapsed=0:04:35.95    \nframe=  507 fps=1.8 q=40.3 size=    1280KiB time=00:00:04.20 bitrate=2491.7kbits/s speed=0.0152x elapsed=0:04:36.46    \nframe=  507 fps=1.8 q=40.3 size=    1280KiB time=00:00:04.20 bitrate=2491.7kbits/s speed=0.0152x elapsed=0:04:36.98    \nframe=  509 fps=1.8 q=42.0 size=    1280KiB time=00:00:04.22 bitrate=2481.9kbits/s speed=0.0152x elapsed=0:04:37.51    \nframe=  509 fps=1.8 q=42.0 size=    1280KiB time=00:00:04.22 bitrate=2481.9kbits/s speed=0.0152x elapsed=0:04:38.02    \nframe=  509 fps=1.8 q=42.0 size=    1280KiB time=00:00:04.22 bitrate=2481.9kbits/s speed=0.0152x elapsed=0:04:38.53    \nframe=  509 fps=1.8 q=42.0 size=    1280KiB time=00:00:04.22 bitrate=2481.9kbits/s speed=0.0151x elapsed=0:04:39.05    \nframe=  510 fps=1.8 q=36.5 size=    1280KiB time=00:00:04.23 bitrate=2477.0kbits/s speed=0.0151x elapsed=0:04:39.56    \nframe=  511 fps=1.8 q=40.6 size=    1280KiB time=00:00:04.24 bitrate=2472.2kbits/s speed=0.0151x elapsed=0:04:40.08    \nframe=  511 fps=1.8 q=40.6 size=    1280KiB time=00:00:04.24 bitrate=2472.2kbits/s speed=0.0151x elapsed=0:04:40.59    \nframe=  511 fps=1.8 q=40.6 size=    1280KiB time=00:00:04.24 bitrate=2472.2kbits/s speed=0.0151x elapsed=0:04:41.11    \nframe=  512 fps=1.8 q=42.0 size=    1280KiB time=00:00:04.25 bitrate=2467.3kbits/s speed=0.0151x elapsed=0:04:41.62    \nframe=  513 fps=1.8 q=42.0 size=    1280KiB time=00:00:04.25 bitrate=2462.5kbits/s speed=0.0151x elapsed=0:04:42.14    \nframe=  513 fps=1.8 q=42.0 size=    1280KiB time=00:00:04.25 bitrate=2462.5kbits/s speed=0.0151x elapsed=0:04:42.66    \nframe=  513 fps=1.8 q=42.0 size=    1280KiB time=00:00:04.25 bitrate=2462.5kbits/s speed=0.015x elapsed=0:04:43.18    \nframe=  514 fps=1.8 q=35.6 size=    1280KiB time=00:00:04.26 bitrate=2457.7kbits/s speed=0.015x elapsed=0:04:43.70    \nframe=  514 fps=1.8 q=35.6 size=    1280KiB time=00:00:04.26 bitrate=2457.7kbits/s speed=0.015x elapsed=0:04:44.22    \nframe=  514 fps=1.8 q=35.6 size=    1280KiB time=00:00:04.26 bitrate=2457.7kbits/s speed=0.015x elapsed=0:04:44.73    \nframe=  515 fps=1.8 q=40.6 size=    1280KiB time=00:00:04.27 bitrate=2452.9kbits/s speed=0.015x elapsed=0:04:45.25    \nframe=  515 fps=1.8 q=40.6 size=    1280KiB time=00:00:04.27 bitrate=2452.9kbits/s speed=0.015x elapsed=0:04:45.76    \nframe=  516 fps=1.8 q=42.0 size=    1280KiB time=00:00:04.28 bitrate=2448.1kbits/s speed=0.015x elapsed=0:04:46.28    \nframe=  517 fps=1.8 q=42.0 size=    1280KiB time=00:00:04.29 bitrate=2443.4kbits/s speed=0.015x elapsed=0:04:46.80    \nframe=  517 fps=1.8 q=42.0 size=    1280KiB time=00:00:04.29 bitrate=2443.4kbits/s speed=0.0149x elapsed=0:04:47.31    \nframe=  517 fps=1.8 q=42.0 size=    1280KiB time=00:00:04.29 bitrate=2443.4kbits/s speed=0.0149x elapsed=0:04:47.83    \nframe=  517 fps=1.8 q=42.0 size=    1280KiB time=00:00:04.29 bitrate=2443.4kbits/s speed=0.0149x elapsed=0:04:48.34    \nframe=  517 fps=1.8 q=42.0 size=    1280KiB time=00:00:04.29 bitrate=2443.4kbits/s speed=0.0149x elapsed=0:04:48.85    \nframe=  518 fps=1.8 q=36.0 size=    1280KiB time=00:00:04.30 bitrate=2438.6kbits/s speed=0.0149x elapsed=0:04:49.38    \nframe=  518 fps=1.8 q=36.0 size=    1280KiB time=00:00:04.30 bitrate=2438.6kbits/s speed=0.0148x elapsed=0:04:49.90    \nframe=  518 fps=1.8 q=36.0 size=    1280KiB time=00:00:04.30 bitrate=2438.6kbits/s speed=0.0148x elapsed=0:04:50.41    \nframe=  519 fps=1.8 q=40.3 size=    1280KiB time=00:00:04.30 bitrate=2433.9kbits/s speed=0.0148x elapsed=0:04:50.92    \nframe=  519 fps=1.8 q=40.3 size=    1280KiB time=00:00:04.30 bitrate=2433.9kbits/s speed=0.0148x elapsed=0:04:51.44    \nframe=  519 fps=1.8 q=40.3 size=    1280KiB time=00:00:04.30 bitrate=2433.9kbits/s speed=0.0148x elapsed=0:04:51.95    \nframe=  520 fps=1.8 q=42.0 size=    1280KiB time=00:00:04.31 bitrate=2429.2kbits/s speed=0.0148x elapsed=0:04:52.47    \nframe=  521 fps=1.8 q=42.0 size=    1280KiB time=00:00:04.32 bitrate=2424.5kbits/s speed=0.0148x elapsed=0:04:52.99    \nframe=  521 fps=1.8 q=42.0 size=    1280KiB time=00:00:04.32 bitrate=2424.5kbits/s speed=0.0147x elapsed=0:04:53.50    \nframe=  521 fps=1.8 q=42.0 size=    1280KiB time=00:00:04.32 bitrate=2424.5kbits/s speed=0.0147x elapsed=0:04:54.01    \nframe=  522 fps=1.8 q=36.2 size=    1280KiB time=00:00:04.33 bitrate=2419.9kbits/s speed=0.0147x elapsed=0:04:54.53    \nframe=  522 fps=1.8 q=36.2 size=    1280KiB time=00:00:04.33 bitrate=2419.9kbits/s speed=0.0147x elapsed=0:04:55.04    \nframe=  523 fps=1.8 q=40.4 size=    1280KiB time=00:00:04.34 bitrate=2415.2kbits/s speed=0.0147x elapsed=0:04:55.56    \nframe=  523 fps=1.8 q=40.4 size=    1280KiB time=00:00:04.34 bitrate=2415.2kbits/s speed=0.0147x elapsed=0:04:56.08    \nframe=  525 fps=1.8 q=41.9 size=    1280KiB time=00:00:04.35 bitrate=2406.0kbits/s speed=0.0147x elapsed=0:04:56.59    \nframe=  525 fps=1.8 q=41.9 size=    1280KiB time=00:00:04.35 bitrate=2406.0kbits/s speed=0.0147x elapsed=0:04:57.11    \nframe=  526 fps=1.8 q=35.7 size=    1280KiB time=00:00:04.36 bitrate=2401.4kbits/s speed=0.0147x elapsed=0:04:57.63    \nframe=  527 fps=1.8 q=40.6 size=    1280KiB time=00:00:04.37 bitrate=2396.8kbits/s speed=0.0147x elapsed=0:04:58.15    \nframe=  528 fps=1.8 q=42.0 size=    1280KiB time=00:00:04.38 bitrate=2392.3kbits/s speed=0.0147x elapsed=0:04:58.67    \nframe=  529 fps=1.8 q=42.0 size=    1280KiB time=00:00:04.39 bitrate=2387.7kbits/s speed=0.0147x elapsed=0:04:59.20    \nframe=  530 fps=1.8 q=36.3 size=    1280KiB time=00:00:04.40 bitrate=2383.2kbits/s speed=0.0147x elapsed=0:04:59.72    \nframe=  531 fps=1.8 q=40.4 size=    1280KiB time=00:00:04.40 bitrate=2378.7kbits/s speed=0.0147x elapsed=0:05:00.24    \nframe=  533 fps=1.8 q=42.0 size=    1280KiB time=00:00:04.42 bitrate=2369.7kbits/s speed=0.0147x elapsed=0:05:00.76    \nframe=  536 fps=1.8 q=42.0 size=    1280KiB time=00:00:04.45 bitrate=2356.4kbits/s speed=0.0148x elapsed=0:05:01.27    \nframe=  536 fps=1.8 q=42.0 size=    1280KiB time=00:00:04.45 bitrate=2356.4kbits/s speed=0.0147x elapsed=0:05:01.79    \nframe=  537 fps=1.8 q=42.0 size=    1280KiB time=00:00:04.45 bitrate=2352.0kbits/s speed=0.0147x elapsed=0:05:02.33    \nframe=  538 fps=1.8 q=35.8 size=    1280KiB time=00:00:04.46 bitrate=2347.6kbits/s speed=0.0147x elapsed=0:05:02.84    \nframe=  539 fps=1.8 q=40.6 size=    1280KiB time=00:00:04.47 bitrate=2343.3kbits/s speed=0.0148x elapsed=0:05:03.36    \nframe=  540 fps=1.8 q=41.9 size=    1280KiB time=00:00:04.48 bitrate=2338.9kbits/s speed=0.0148x elapsed=0:05:03.87    \nframe=  542 fps=1.8 q=36.0 size=    1280KiB time=00:00:04.50 bitrate=2330.2kbits/s speed=0.0148x elapsed=0:05:04.39    \nframe=  542 fps=1.8 q=36.0 size=    1280KiB time=00:00:04.50 bitrate=2330.2kbits/s speed=0.0148x elapsed=0:05:04.91    \nframe=  543 fps=1.8 q=40.4 size=    1280KiB time=00:00:04.50 bitrate=2325.9kbits/s speed=0.0148x elapsed=0:05:05.42    \nframe=  545 fps=1.8 q=42.0 size=    1280KiB time=00:00:04.52 bitrate=2317.4kbits/s speed=0.0148x elapsed=0:05:05.94    \nframe=  545 fps=1.8 q=42.0 size=    1280KiB time=00:00:04.52 bitrate=2317.4kbits/s speed=0.0148x elapsed=0:05:06.45    \nframe=  546 fps=1.8 q=35.3 size=    1280KiB time=00:00:04.53 bitrate=2313.1kbits/s speed=0.0148x elapsed=0:05:06.97    \nframe=  548 fps=1.8 q=41.9 size=    1280KiB time=00:00:04.55 bitrate=2304.6kbits/s speed=0.0148x elapsed=0:05:07.50    \nframe=  549 fps=1.8 q=42.0 size=    1280KiB time=00:00:04.55 bitrate=2300.4kbits/s speed=0.0148x elapsed=0:05:08.01    \nframe=  551 fps=1.8 q=40.5 size=    1280KiB time=00:00:04.57 bitrate=2292.0kbits/s speed=0.0148x elapsed=0:05:08.53    \nframe=  553 fps=1.8 q=42.0 size=    1280KiB time=00:00:04.59 bitrate=2283.7kbits/s speed=0.0149x elapsed=0:05:09.04    \nframe=  555 fps=1.8 q=40.6 size=    1280KiB time=00:00:04.60 bitrate=2275.5kbits/s speed=0.0149x elapsed=0:05:09.56    \nframe=  557 fps=1.8 q=42.0 size=    1280KiB time=00:00:04.62 bitrate=2267.3kbits/s speed=0.0149x elapsed=0:05:10.08    \nframe=  559 fps=1.8 q=40.5 size=    1280KiB time=00:00:04.64 bitrate=2259.1kbits/s speed=0.0149x elapsed=0:05:10.60    \nframe=  561 fps=1.8 q=42.0 size=    1280KiB time=00:00:04.65 bitrate=2251.0kbits/s speed=0.015x elapsed=0:05:11.12    \nframe=  563 fps=1.8 q=40.6 size=    1280KiB time=00:00:04.67 bitrate=2243.0kbits/s speed=0.015x elapsed=0:05:11.64    \nframe=  566 fps=1.8 q=36.5 size=    1280KiB time=00:00:04.70 bitrate=2231.1kbits/s speed=0.0151x elapsed=0:05:12.16    \nframe=  568 fps=1.8 q=41.9 size=    1280KiB time=00:00:04.71 bitrate=2223.2kbits/s speed=0.0151x elapsed=0:05:12.67    \nframe=  570 fps=1.8 q=35.7 size=    1280KiB time=00:00:04.73 bitrate=2215.4kbits/s speed=0.0151x elapsed=0:05:13.19    \nframe=  573 fps=1.8 q=42.0 size=    1280KiB time=00:00:04.75 bitrate=2203.7kbits/s speed=0.0152x elapsed=0:05:13.72    \nframe=  574 fps=1.8 q=36.0 size=    1280KiB time=00:00:04.76 bitrate=2199.9kbits/s speed=0.0152x elapsed=0:05:14.24    \nframe=  575 fps=1.8 q=40.4 size=    1280KiB time=00:00:04.77 bitrate=2196.0kbits/s speed=0.0152x elapsed=0:05:14.74    \nframe=  578 fps=1.8 q=36.6 size=    1280KiB time=00:00:04.80 bitrate=2184.6kbits/s speed=0.0152x elapsed=0:05:15.27    \nframe=  581 fps=1.8 q=42.0 size=    1280KiB time=00:00:04.82 bitrate=2173.3kbits/s speed=0.0153x elapsed=0:05:15.79    \nframe=  582 fps=1.8 q=36.6 size=    1280KiB time=00:00:04.83 bitrate=2169.5kbits/s speed=0.0153x elapsed=0:05:16.31    \nframe=  584 fps=1.8 q=42.0 size=    1280KiB time=00:00:04.85 bitrate=2162.1kbits/s speed=0.0153x elapsed=0:05:16.83    \nframe=  586 fps=1.8 q=40.1 size=    1280KiB time=00:00:04.86 bitrate=2154.7kbits/s speed=0.0153x elapsed=0:05:17.34    \nframe=  589 fps=1.9 q=36.5 size=    1280KiB time=00:00:04.89 bitrate=2143.7kbits/s speed=0.0154x elapsed=0:05:17.86    \nframe=  591 fps=1.9 q=42.0 size=    1280KiB time=00:00:04.90 bitrate=2136.4kbits/s speed=0.0154x elapsed=0:05:18.37    \nframe=  593 fps=1.9 q=36.8 size=    1280KiB time=00:00:04.92 bitrate=2129.2kbits/s speed=0.0154x elapsed=0:05:18.89    \nframe=  595 fps=1.9 q=42.0 size=    1280KiB time=00:00:04.94 bitrate=2122.0kbits/s speed=0.0155x elapsed=0:05:19.41    \nframe=  597 fps=1.9 q=38.7 size=    1280KiB time=00:00:04.95 bitrate=2114.8kbits/s speed=0.0155x elapsed=0:05:19.92    \n[mp4 @ 000002ed03df9bc0] Starting second pass: moving the moov atom to the beginning of the file\n[out#0/mp4 @ 000002ed03df9ac0] video:1522KiB audio:0KiB subtitle:0KiB other streams:0KiB global headers:2KiB muxing overhead: 0.712748%\nframe=  600 fps=1.9 q=42.0 Lsize=    1533KiB time=00:00:04.98 bitrate=2519.5kbits/s speed=0.0156x elapsed=0:05:20.32    \nx265 [info]: frame I:      3, Avg QP:36.24  kb/s: 21648.96\nx265 [info]: frame P:    146, Avg QP:35.71  kb/s: 8287.23 \nx265 [info]: frame B:    451, Avg QP:41.33  kb/s: 485.18  \nx265 [info]: Weighted P-Frames: Y:0.0% UV:0.0%\n\nencoded 600 frames in 319.52s (1.88 fps), 2489.50 kb/s, Avg QP:39.94\n",
  "seconds": 320.5704481601715,
  "probe_out": {}
}